<svg id="Layer_1" data-name="Layer 1" xmlns="http://www.w3.org/2000/svg" viewBox="0 0 96.06 97.74"><defs><style>.cls-1{fill:#191919;}</style></defs><path class="cls-1" d="M22,68.69a.5.5,0,0,0,.66-.26,3,3,0,0,1,1.45-1.79c.8.6.73.73.8,1.19a3,3,0,0,1,0,1.06,2.51,2.51,0,0,0-.27,1,3.13,3.13,0,0,1,.17,1.49c-.13.59-.33.66-.4,1a15.19,15.19,0,0,0-.07,2.45A16.72,16.72,0,0,0,25,76.39a7.93,7.93,0,0,1,.53,1.19c.07.4.07.93.27,1a1.56,1.56,0,0,1,.72.39,12.4,12.4,0,0,0,2.25,1.85c.46.14,1.46.86,2.78,3.38a19.18,19.18,0,0,1,2.31,6.94,5.42,5.42,0,0,1-.26,2.32c-.13.66-.33,1.71.26,2.11a4.84,4.84,0,0,0,3,.93,51.8,51.8,0,0,1,9.79.26c3.63.6,4.76.66,4.82,1.13s-.79.33-.79.33a51.89,51.89,0,0,0-7.21-.53c-2.51.13-5.62.26-7.27.33a7.81,7.81,0,0,1-2.91-.2c-.53-.2-.46-.46-1.39-.2s-1,.73-1.72.8a25.79,25.79,0,0,1-4.1.13,3.88,3.88,0,0,0-1.59.13,1.82,1.82,0,0,1-.86,0c-.39,0-1.32,0-1.25-.4-.2-.13-.14-.26-.14-.46a1,1,0,0,1,.2-.46l.2-.14-1.26-.13H20.34L19.81,97s-.6,0-.73-.2-.4-.73-.2-.86.4-.46.73-.33c.13-.2.2-.4.79-.2a8.85,8.85,0,0,0,2.45.47c1.45.13,2,.13,2.18,0s-.33-.8-.33-.8a3.41,3.41,0,0,1-.59-.86,7.06,7.06,0,0,0-.33-1l-.07-.07-.27-.39a6.13,6.13,0,0,1,.07-1,4.16,4.16,0,0,0-.07-1.06v-.46l.14-.67-.14-.66a2.5,2.5,0,0,0-.33-.59,2.73,2.73,0,0,0-.39-.33,1.43,1.43,0,0,1-.4-.47l-.2-.26-.2-.07s-1.52,4-1.65,4.17-.26.59-.4.79,0,.4-.06.53a1.6,1.6,0,0,1-.2.27s-.13-.07-.2.19a2.09,2.09,0,0,1-.33.6,1,1,0,0,1,0,.46c-.07.14-.26.6-.26.6a5.32,5.32,0,0,1-.14.66c-.06.2-.06.59-.2.66s-.19.33-.19.33-.07.13-.2.33-.46.46-.46.53-.34.2-.67.2-.53.07-.66-.07-.92,0-.92-.26,0-1.13.33-1.19.53.06.79,0,.27-.2.46-.46a17,17,0,0,0,.8-2.52c.26-.92,1-4.43,1-4.76a13.92,13.92,0,0,0-.33-3,16.3,16.3,0,0,1-.86-2.78,8.81,8.81,0,0,1,.33-2.78,1.62,1.62,0,0,1-.53-.39,7.06,7.06,0,0,0-.4-.73c-.19-.26-.72-.73-.92-1a10.1,10.1,0,0,1-1.39-2.58,7.06,7.06,0,0,0-.6-1.59l-.13-.13a1,1,0,0,1-.13-.33,3.77,3.77,0,0,0-.4-.73,4.77,4.77,0,0,0-.46-.66v-.2a4.74,4.74,0,0,0-.6-.92c-.13-.07-.19-.07-.26.06a1.6,1.6,0,0,1-.2.27v-.6s.13-.06-.13-.26-.4-.33-.53-.27-.33-.2-.33-.2l-.2-.13h-.33s-.46-.13-.4-.46l-.19.2.13-.6.73-.46a.75.75,0,0,1,.33-.27c.19-.06.13.07.53.2a2.56,2.56,0,0,1,1,.66c.2.27,1.33,1.33,2.05,2.25s2.65,3.44,2.91,3.9.33.6.53.73.13.2.46.07A.65.65,0,0,0,19,75c.06-.2.06-.07,0-.6a7.66,7.66,0,0,0-.13-.93l-.14-.39s-.86-.27-.79-.93-.46-.53-.46-.79-.07-.8.39-1c0-.2-.06-.4.27-.53s.86-.27.86-.53a11.82,11.82,0,0,0-.47-1.59s-.13-.53.14-.33,1.32.73,1.52,1.32A10,10,0,0,1,22,68.69Z" transform="translate(-1.94 -1)"/><path class="cls-1" d="M89.43,75.5a3,3,0,0,0-1.08,0,3.86,3.86,0,0,1-1.74-.06c-.41-.14-1-.47-1.28-.41s-.41-.4-.41-.4-1.27-2.89-1.48-3.09-.8-1.08-1.34,0a8.32,8.32,0,0,0-.47,3.16c0,.06-.14,1.54-.14,1.54v.88A4.54,4.54,0,0,1,81,78.6a3.57,3.57,0,0,0-.71,2.12c.07.67.2,1.54.2,1.54a9.9,9.9,0,0,1-1.82-1.21,2.34,2.34,0,0,0-1.41-.74,14.61,14.61,0,0,1-2.55-1,14.15,14.15,0,0,0-3-1.41c-1-.2-5.12-.4-5.72-.4s-1.75.13-1.75.13l-.2.2.13.21a1.54,1.54,0,0,0-.6,0l-.61.13-.27.07-.27.13v.07l-.2.07v.13l-1.14.07.47.2-.61.2c-.2.07.34.2.34.2l-.14.27-.26.14a3.36,3.36,0,0,0-.61.07,7.05,7.05,0,0,0-1.41.87l-.41.2-.13.34-.61.07v.26l-.2.14-.13.27-.41.33-.4.14v.2l.47.14a4,4,0,0,1-.67.53,2.16,2.16,0,0,1-.67.27l-.27.2h.47l-.47.14h.33l-.13.4-.47.2h.4l-.2.21.34.06-1.21.88.26.33-.26.34H55s-.74,1.21-.68,1.55a2.55,2.55,0,0,1-.2,1l-.27.4.47-.4.27-.47v.67l-.33.54-.21.2-.2.27-.2,1,.47-.54-.07.6a3.34,3.34,0,0,0-.4.74c0,.11,0,.24-.08.34s-.05.27-.05.27v.27l.47-.54a2.06,2.06,0,0,1-.2.81,2.21,2.21,0,0,0-.27,1.34c.06.47.2,1.08.2,1.08l.07-.47.2.67.06-.2.48.6.06.74a6.41,6.41,0,0,1,1,.68c.27.27.34.27.94.33a32.81,32.81,0,0,0,4.78.41c1.75-.07,6.32.13,6.32.13s12.11.54,14.4.34,5-.14,5-.14,1.21-.06,1.35-.4-.41-.67-1-.67h-.61L88,97.33l.88.07a2.34,2.34,0,0,0,1.28-.54c.47-.47.47-.67.47-.87a7.23,7.23,0,0,0-.2-.94l-.34-.61-.13-.27-.07-.67a19.73,19.73,0,0,0,1-3c.06-.74.2-1.55.2-1.55l.67-1.21-.2-.33.2-.61v-.54l.2-.06v-.41s.07.27,0-.06l-.06-.34.06-.07v-.07l.14-.2v-.13l.2-.34v-.2s-.07.07,0-.2-.54.27,0-.27.4-.34.54-.54.74-2.08.87-2.49a3.72,3.72,0,0,0,0-1.28l-.13-.94.2-.81a5.44,5.44,0,0,0,.81-3.09c-.14-1.68-.27-2.82-.94-2.82a2.21,2.21,0,0,0-1.82,1A15.27,15.27,0,0,1,89.43,75.5Z" transform="translate(-1.94 -1)"/><path class="cls-1" d="M18,11.19a5.58,5.58,0,0,1-.93-.45c-.2-.17-.17-.31-.17-.31l.17-.37,0-.34.2-.52.24-.44s.58-.89.75-1.2a5.17,5.17,0,0,0,.35-1V6.43a2,2,0,0,0-1,.24,3.35,3.35,0,0,1-1,.41,1.7,1.7,0,0,1-.69,0,10.87,10.87,0,0,1-1-.41s-1.2-.58-1.37-.62-.41-.1-.41-.1a7.3,7.3,0,0,0-.34-1.2c-.14-.24-.48-1.3-.75-1.23s-.52.45-.59,1a10.82,10.82,0,0,1-.3,1.5c-.07.21-.31.62-.34.79a1.57,1.57,0,0,1-.21.41L10,7.84v.61l-.1.14.14.17-.14.1.21.1L10,9l.07.07-.17.17.21.55a1.91,1.91,0,0,0,.1.61c.1.24.24,1.3.34,1.78A9.86,9.86,0,0,1,10.4,15a3.13,3.13,0,0,0,0,1.43,5.1,5.1,0,0,0,.65,2.06c.55.82.82,1.84.44,2.25s-2,1.78-2.42,2.26-1.68,1.74-1.68,1.74-.82.89-1,1.2-.27.31-.17.41-.24.45-.17.65.14.31.38.34a2.09,2.09,0,0,1,.41.11,2.22,2.22,0,0,0,.78-.24,4.87,4.87,0,0,0,.62-.62l.24-.38A1.34,1.34,0,0,1,8.73,26a3.67,3.67,0,0,0,.38-.65s0,.13.2.06.38-.61.82-.78,2.09-.93,2.09-.93,2-.85,2.32-1.06a6.46,6.46,0,0,0,.86-.82.29.29,0,0,1,.37.14,7.28,7.28,0,0,1,.45.89s.2.92.31,1.47.58,2.09.24,2.87-.31,1.3-.69,1.27a1.15,1.15,0,0,0-1.23.37c-.41.52-.44.86-.2.89a1.08,1.08,0,0,1,.37.11,1.6,1.6,0,0,0,.55,0l.72,0a1.63,1.63,0,0,0,.82-.14l.51-.54a5,5,0,0,1,.41-.65,2,2,0,0,0,.45-.89,9.28,9.28,0,0,0,.17-1.41l1-4.75s.14-.72.65-.82,3-.38,3.63.07.85.24,1.3,1a7,7,0,0,1,.61,1.61c.24.61.07.92.38,1.16a1.26,1.26,0,0,1,.51.65,1.13,1.13,0,0,1-.51,1.64c-1,.48-1.85,1.13-2.26,1s-1.4.07-1.37.51.17.89.62.79a3.81,3.81,0,0,0,1.78.07,20.73,20.73,0,0,0,3-1.37c1.23-.69,1.82-1.13,1.85-1.37s-.17-.31-.14-.55.21-1.3.34-1.91a6.27,6.27,0,0,0,0-1.64c0-.28,1.82,1.06,2.77,1.43s4.62,1.3,5.07,1.58.47.34.61.92.38,2.19.14,2.12-1.13.07-1.16.58.06,1.09.41,1a.46.46,0,0,1,.51,0h1s.38.1.62-.51a4.46,4.46,0,0,0,.41-2c-.07-.65,0-3.12,0-3.12s.17-1-.34-1.19a11.41,11.41,0,0,1-3-2.64,2.52,2.52,0,0,1-.79-2.19,5.44,5.44,0,0,0-.44-2.39,1.77,1.77,0,0,1,0-1.74c.38-.45,2.23-1.47,2.84-2.64s.38-.85.38-.85L39.2,10l.17-.48,0-.34-.17.23.17-.65.11-.44,0-.34a10.05,10.05,0,0,0,.21-2.12A4,4,0,0,0,39.44,5l.1.52a8.88,8.88,0,0,1-.27-.93,5,5,0,0,0-.65-1.26l-.7-.85-.16-.18A4.88,4.88,0,0,0,37,1.58c-.31-.17-.76-.38-.76-.38l.07.14A1.63,1.63,0,0,0,35.44,1a4.81,4.81,0,0,0-1,0h-.16a5.37,5.37,0,0,0-1.07.14,2.32,2.32,0,0,0-.54.27,2.23,2.23,0,0,1-.38.27,6.68,6.68,0,0,1-.61.35l-.47.46-.08.08V3s-.17,0,0,.17.28.51.58.37a6.4,6.4,0,0,1,.76-.27,3,3,0,0,1,2.8,0,3.61,3.61,0,0,1,2.16,3.56c-.07,2,0,4.2-3,6.08a3.78,3.78,0,0,1-2.67-.34,36.91,36.91,0,0,0-7.46-2.46,7.69,7.69,0,0,0-3.79.2A10.26,10.26,0,0,1,18,11.19Z" transform="translate(-1.94 -1)"/><path class="cls-1" d="M92.85,7.45s2,1.07,2.27,1.89a3.14,3.14,0,0,1,.3,1.49,1.63,1.63,0,0,0,.3,1c.08.09.51.64.43,1a1.09,1.09,0,0,1-.22.47,3.83,3.83,0,0,1-1.11,1.07,2.39,2.39,0,0,1-1.54,0,6.4,6.4,0,0,0-2.19.13c-.64.12-1.75.55-1.79.81s0,2.35,0,2.35a6.76,6.76,0,0,0,1.07,3.13A23.76,23.76,0,0,0,93,23.59a5.78,5.78,0,0,1,1.16,1.12,6,6,0,0,0,1.15,1,2.57,2.57,0,0,1,.77.73,4.31,4.31,0,0,0,.86.26c.21,0,1,.21,1,.64s0,.9-.39,1a3.12,3.12,0,0,1-1.28.17,2.55,2.55,0,0,1-.22-.17l-.21-.13-.34,0a.65.65,0,0,1-.6-.08,4.35,4.35,0,0,0-.56-.35l-.3-.12a1.93,1.93,0,0,0-.64-.6c-.43-.26-.9-.52-.9-.52s-3-2.18-4.2-2.82-2.22-1.84-3.46-2-1.59-.13-1.93-.35a4.78,4.78,0,0,1-.77-.68v-.17a7.81,7.81,0,0,0-2,1.71,13.55,13.55,0,0,0-1.72,3c-.21.55-.68,1.49-.68,1.49a3,3,0,0,0-.09.52,1.17,1.17,0,0,0,.17.77.55.55,0,0,0,.56.21s.56.13.73.47.08.94-.09,1a.78.78,0,0,1-.47,0l-.3.13L78,29.84a2.76,2.76,0,0,1-1.28.09,1.18,1.18,0,0,1-1-.81,10.71,10.71,0,0,1-.26-1.25V27a1.32,1.32,0,0,1,0-.86,8.1,8.1,0,0,0,.69-2.27c.08-.9.3-2.44.3-2.44l0-1a21.35,21.35,0,0,1-3,.64,23.52,23.52,0,0,1-3.34,0l-3.13.25-.29.26L63.74,25s-.35.73.17,1.12,1.54,1.41,1.8,1.49a.87.87,0,0,0,.77.09,1.41,1.41,0,0,1,.94.17l.6.51a.61.61,0,0,1,0,.56,1.21,1.21,0,0,1-.69.47H65.06l-.51-.08-.17-.22-.69-.34a28.72,28.72,0,0,1-2.56-2.4c-.73-.85-1.33-1.58-1.25-2a7.94,7.94,0,0,1,.56-1.24s.17-.51.3-.85.21-.65.21-.65-5.43,1.16-6.55.82-1.75,1.15-1.75,1.15S51.19,27,51.11,27.32s-.43,1.07-.73,1.11a1.52,1.52,0,0,1-1-.17.82.82,0,0,1-.21-.39l.09-.34a2.2,2.2,0,0,1-.18-.51,1.11,1.11,0,0,1,.13-.52c.09-.08.3-.08.35-.42s.38-1.89.55-2.53,1.2-3,1.2-3a5.86,5.86,0,0,1-1,.9c-.34.17-.25,0-.25,0a3.59,3.59,0,0,1-.95.26c-.59.08-.47-.09-.47-.09s.3.13-.6.09a8.59,8.59,0,0,1-1.24-.13l.09-.09-.47,0s-.52-.26-.9-.43-.09-.17-.09-.17-.85-.64-1.07-.77a3.15,3.15,0,0,1-.55-.6l.21.09-.13-.22a6.46,6.46,0,0,1-1-1.2c-.08-.3-.21-.6-.12-.68a2,2,0,0,1,1.45.17,8,8,0,0,0,2.61,1.67A4.53,4.53,0,0,0,51,17.9c1.5-1.41,3.73-4,3.94-4.2a1.48,1.48,0,0,0,.34-.43s-.3.22-.38.26.21-.26.55-.64.35-.3.35-.39a16.27,16.27,0,0,1,1.75-2.14,13.83,13.83,0,0,1,1.84-.9s4.84-1,5.27-.94A44.62,44.62,0,0,1,69.82,9a36.42,36.42,0,0,0,6.89.51c.94-.12,2.14-.21,2.61-.25a6.18,6.18,0,0,1,1.16,0l.72,0a5.26,5.26,0,0,0,1.29.13c.56,0,1,.09,1.2-.08a5.06,5.06,0,0,1,.68-.43l.82-.09a7.79,7.79,0,0,0,2.52-.6l2-1.15s0-.65.13-.82a3.72,3.72,0,0,1,.86-.68.41.41,0,0,1,.47.08c.21.18.38.26.47.48l.21.55s.39-.38.6-.55.47-.43.64-.26.26.13.17.43a4,4,0,0,1-.25.81A1,1,0,0,0,92.85,7.45Z" transform="translate(-1.94 -1)"/><path class="cls-1" d="M50.23,57.59a3.63,3.63,0,0,1-3.48-1.5C45.39,54.18,45,51.65,44.09,51s-1.27-1.13-2.22-.86a8.16,8.16,0,0,0-2.39,1c-.14.2.34.41.34.41A4.35,4.35,0,0,0,41,51.41c.68-.2,1.57-.13,1.84.28a6.6,6.6,0,0,1,1,1.36c.21.55-.07.28-.07.28a1.49,1.49,0,0,0,.34,1.09c.41.41.89.95.82,1.16s.55,1.23.55,1.23l-.07.34.34.34a2.29,2.29,0,0,0,.55.48c.34.2-.07.2-.07.2a7.22,7.22,0,0,0,.82.48,3.23,3.23,0,0,1,.61.41,8.71,8.71,0,0,0,2.6.75c.14.14,0,.62,0,.62s-.89,0-1,.34-.28,1.3.2,1.36a1.61,1.61,0,0,0,.68,0,3.39,3.39,0,0,1,.82,0,2,2,0,0,0,.69,0l.13-.41s.14-.27.62-.13.68.13.88,0a1.42,1.42,0,0,0,.35-.62,6,6,0,0,1,1.7-.13,7.07,7.07,0,0,0,.75.27s.21.27.41.27.28.34.28.34-.14.28,0,.35a13.12,13.12,0,0,0,1.7.06c.48,0,.76.07.82-.13a.45.45,0,0,0,0-.34l.55.06s.75.07.89-.2.2-.34,0-.68a3,3,0,0,1-.28-.55l-.54-.2L59.35,60a5.47,5.47,0,0,0,1.57-.89c.62-.55,2.12-1.64,1.84-3.48a17.13,17.13,0,0,0-.61-3.14c-.2-.55-.48-.62-.61-1.3a17.47,17.47,0,0,0-.89-2.6,15.82,15.82,0,0,0-2.32-4A10.84,10.84,0,0,0,56.62,43s0,.21-.14-.2a5.56,5.56,0,0,0-.41-1c-.07-.06-.68-1-.68-1a7.18,7.18,0,0,0,.14-1.16,8.63,8.63,0,0,1,.27-1.5l.2-.55.07-.61s.34-1,.48-1.3a2.58,2.58,0,0,0,.21-1.09c-.07-.14.13-.69-.41-.82a1.44,1.44,0,0,0-1.51.61c-.47.55-1.5,1.57-1.57,1.64s-2.46-.21-3.07.14c-.41-.55-2.39-2.46-2.39-2.46s-1.37-.48-1.37.54A11.63,11.63,0,0,0,47,36.94a2.88,2.88,0,0,1,.07.61l.13.21a1.36,1.36,0,0,1,.14.75A6.38,6.38,0,0,0,48,40.83a1,1,0,0,1,.34.82,2.79,2.79,0,0,1-.28.61,4,4,0,0,0-.41,2.26c.21,1.09,1.85,6.28,2,6.69a4.55,4.55,0,0,1,.07,1.3l.28,1.36.13.82a1,1,0,0,0-.34.75,5.19,5.19,0,0,0,.41,1.78A.46.46,0,0,1,50.23,57.59Z" transform="translate(-1.94 -1)"/><path class="cls-1" d="M37.58,40.11a15.15,15.15,0,0,1,1.62,1.62,3.25,3.25,0,0,1,.41,1.38c0,.33.57.82.57.82s.4.08.24.56l-.16.49a3.84,3.84,0,0,1-.08.49,1.1,1.1,0,0,1-.25.57l-.16.32a15.83,15.83,0,0,1-2,.57,1.25,1.25,0,0,0-.89,1.3c0,.57.53,3.05-.69,4.18s-2.2,1.38-2.93,2.44a4.29,4.29,0,0,0-1.05,2.92,19.51,19.51,0,0,0,.48,2c.09.16.65.16.65.16s1,0,1.14.32a1.91,1.91,0,0,1,0,1h-.65l-.08.24h-.32s.48,1-.09,1.06a1.52,1.52,0,0,1-.73,0H31a1,1,0,0,1-1-.73,11.74,11.74,0,0,0-1.3-2.52,5.7,5.7,0,0,1-.65-1.06l-1.3,1.14s-.16.32.17.32,1,0,1,.41.25.73-.24.89a3.37,3.37,0,0,1-1,.17h-.89s.65.32.49.65-.73,1-1.06.73a.3.3,0,0,0-.49.08l-.32-.16h-.33s.09-.25-.56-.25a9.49,9.49,0,0,0-2.2,0,7.81,7.81,0,0,1-2.19,0s-2.68.65-4-.08a3.33,3.33,0,0,0-1.06.16,35.09,35.09,0,0,1-6.25,0c-2.76-.16-2.62-.12-3.43-.44s-2.6-2-2.52-3.74,1.3-3.49,1.38-2.6S3,58.3,4,59,5,60.17,7.38,60.33s1,0,1,0,3.73,0,4.55-.4,1.13-1.3,1.05-3.09a14.19,14.19,0,0,1,.33-3.49,12,12,0,0,1,4-5.44c2.76-1.87,4.22-2,5.68-1.87s1.79-.25,1.79-.25l1.54.09a1,1,0,0,0,1.14,0,6.87,6.87,0,0,0,2.76-3.17,5.34,5.34,0,0,1,2.6-2.68s.81-1.22,1.06-1.3a.49.49,0,0,1,.65.4,3.77,3.77,0,0,1,.08.65l.65-.32s.65-.73,1-1.14,1.14-1.14,1.14-1A3.63,3.63,0,0,1,38,38.52C37.78,39,37.37,39.91,37.58,40.11Z" transform="translate(-1.94 -1)"/><path class="cls-1" d="M81,36a1.89,1.89,0,0,1-1.21.3,2.1,2.1,0,0,0-1.06-.15,8.28,8.28,0,0,0-1.44.15c-.45.15-.37.42-.9.15a5.38,5.38,0,0,1-1-.45,5.16,5.16,0,0,0-.72-.46,23.12,23.12,0,0,0-2-1.89c-.42-.23-1-.64-1.29,0a2.4,2.4,0,0,0,0,1.86,6.14,6.14,0,0,1,.38,2,3.23,3.23,0,0,0,.07,1.09c.08.31,0,.5.23.69a.52.52,0,0,1,.23.6c-.08.23-1,1.33-.87,1.74a8.68,8.68,0,0,0,.64,2.5c.42.61.61.68.68,1.36a7.61,7.61,0,0,1-.26,2.73,4.29,4.29,0,0,0-.35,2c.08.64.27.3.16,1.06s.38.45-.19,1.21-1.25,1.4-.91,2.54.68,1.78.83,2.5.57.6.11,1.1-1.06.11-1.28.64a7.18,7.18,0,0,0-.53,2c0,.41,0,.76.26.79a2.27,2.27,0,0,0,.57,0,3.89,3.89,0,0,0,.45.15,2,2,0,0,0,.72,0l.16,0,.87-.26.53-.31s.15.16.45-.11a4.42,4.42,0,0,0,.61-.72l.22-.42a1.67,1.67,0,0,0,.82-.77,6,6,0,0,0,.34-1.17s.11-.42.38-.38.75.22.57.45a4,4,0,0,1-.53.49,1.36,1.36,0,0,0-.61,1c0,.68-.38,1.32,0,1.51s1.06.53,1.06.53l.41-.08s-.26.34.38.23,1.18-.23,1.18-.23,0,0,.56-.11.95-.08,1.25-.49-.19-.53,1.1-1.21a22.36,22.36,0,0,1,5.64-1.74,2.82,2.82,0,0,0,2.16-.8,8.69,8.69,0,0,0,1.86-1.7c.53-.61.53-.61.68-.61s.57,0,.57,0,1,0,1.06-.65.34-.07,0-1.06-.5-.53-.38-1.17,1.17-3,.76-4.85a29.24,29.24,0,0,0-1.33-3.82c-.19-.61-.68-2.16-1.82-2.5a3.94,3.94,0,0,0-2.42,0c-.53.15-.53.23-1.36-.15a5.74,5.74,0,0,0-1.86-.46c-.11,0-.79.08-.79.08a2.91,2.91,0,0,1-.61-.91,1.36,1.36,0,0,1,.08-.6A2.41,2.41,0,0,0,84.79,38,3.82,3.82,0,0,1,85,36.28,8.73,8.73,0,0,0,85.17,34c0-.49-.26-.83-.68-.72a5.76,5.76,0,0,0-1.78,1.06C82.41,34.65,81,36,81,36Z" transform="translate(-1.94 -1)"/></svg>