<?xml version="1.0" encoding="utf-8"?>
<!-- Generator: Adobe Illustrator 26.0.3, SVG Export Plug-In . SVG Version: 6.00 Build 0)  -->
<svg version="1.1" id="Layer_1" xmlns="http://www.w3.org/2000/svg" xmlns:xlink="http://www.w3.org/1999/xlink" x="0px" y="0px"
	 viewBox="0 0 96.1 97.7" style="enable-background:new 0 0 96.1 97.7;" xml:space="preserve">
<path d="M75.6,35.8c0.2,0.1,0.3,0,0.4-0.2l0,0c0.1-0.5,0.4-0.8,0.9-1.1c0.5,0.4,0.4,0.4,0.5,0.7c0.1,0.2,0.1,0.4,0,0.7
	c-0.1,0.2-0.2,0.4-0.2,0.6c0.1,0.3,0.1,0.6,0.1,0.9c-0.1,0.4-0.2,0.4-0.2,0.6C77,38.4,77,38.9,77,39.4c0.1,0.3,0.2,0.7,0.4,0.9
	c0.1,0.2,0.2,0.5,0.3,0.7c0.1,0.2,0.1,0.5,0.2,0.6c0.2,0.1,0.3,0.1,0.4,0.2c0.4,0.4,0.8,0.8,1.3,1.1c0.3,0.1,0.9,0.5,1.7,2
	c0.7,1.2,1.2,2.7,1.4,4.1c0.1,0.5,0,0.9-0.2,1.4c-0.1,0.4-0.2,1,0.2,1.2c0.5,0.4,1.1,0.6,1.8,0.5c2-0.1,3.8-0.1,5.8,0.2
	c2.1,0.4,2.8,0.4,2.8,0.7c0,0.2-0.5,0.2-0.5,0.2c-1.4-0.2-2.8-0.3-4.3-0.3C86.8,53,85,53.1,84,53.1c-0.6,0.1-1.2,0-1.7-0.1
	c-0.3-0.1-0.3-0.3-0.8-0.1s-0.6,0.4-1,0.5c-0.8,0.1-1.6,0.1-2.4,0.1c-0.3-0.1-0.7,0-0.9,0.1c-0.2,0.1-0.4,0.1-0.5,0
	c-0.2,0-0.8,0-0.7-0.2c-0.1-0.1-0.1-0.2-0.1-0.3s0.1-0.2,0.1-0.3l0.1-0.1l-0.8-0.1h-0.6l-0.4,0c0,0-0.4,0-0.4-0.1s-0.2-0.4-0.1-0.5
	c0.1-0.1,0.2-0.3,0.4-0.2c0.1-0.1,0.1-0.2,0.5-0.1c0.5,0.2,0.9,0.2,1.5,0.3c0.9,0.1,1.2,0.1,1.3,0c0.1-0.1-0.2-0.5-0.2-0.5
	c-0.1-0.2-0.2-0.3-0.4-0.5c-0.1-0.2-0.1-0.4-0.2-0.6l-0.1-0.1L76.5,50c0-0.2,0-0.4,0.1-0.6c0-0.2,0-0.4-0.1-0.7v-0.3l0.1-0.4
	l-0.1-0.4c-0.1-0.1-0.1-0.2-0.2-0.4c-0.1-0.1-0.1-0.1-0.2-0.2c-0.1-0.1-0.2-0.2-0.2-0.3l-0.1-0.2l-0.2,0.1c0,0-0.9,2.4-0.9,2.5
	c-0.1,0.1-0.2,0.4-0.2,0.5c-0.1,0.1,0,0.2-0.1,0.3c-0.1,0.1-0.1,0.1-0.1,0.2c0,0-0.1-0.1-0.1,0.1c-0.1,0.1-0.1,0.2-0.2,0.4
	c0,0.1,0,0.2,0,0.3c-0.1,0.1-0.2,0.4-0.2,0.4c0,0.1-0.1,0.2-0.1,0.4c-0.1,0.1-0.1,0.4-0.1,0.4c-0.1,0.1-0.1,0.2-0.1,0.2
	s-0.1,0.1-0.1,0.2c-0.1,0.1-0.3,0.3-0.3,0.3s-0.2,0.1-0.4,0.1s-0.3,0.1-0.4-0.1c-0.1-0.1-0.5,0-0.5-0.2s0-0.7,0.2-0.7
	c0.2-0.1,0.3,0.1,0.5,0c0.2-0.1,0.2-0.1,0.3-0.3c0.2-0.5,0.4-1,0.5-1.5c0.2-0.5,0.6-2.6,0.6-2.8c0-0.6-0.1-1.2-0.2-1.8
	c-0.2-0.5-0.4-1.1-0.5-1.7c0-0.5,0.1-1.1,0.2-1.7c-0.1-0.1-0.2-0.1-0.3-0.2c-0.1-0.2-0.2-0.3-0.2-0.4c-0.1-0.2-0.4-0.4-0.5-0.6
	c-0.4-0.5-0.7-1-0.8-1.5c-0.1-0.4-0.2-0.7-0.4-0.9l-0.1,0c-0.1-0.1-0.1-0.1-0.1-0.2c-0.1-0.2-0.1-0.3-0.2-0.4
	c-0.1-0.1-0.2-0.3-0.3-0.4v-0.1c-0.1-0.2-0.2-0.4-0.4-0.5c-0.1-0.1-0.1-0.1-0.2,0.1c-0.1,0.1-0.1,0.1-0.1,0.2v-0.4
	c0,0,0.1-0.1-0.1-0.2c-0.1-0.1-0.2-0.2-0.3-0.2c-0.1,0.1-0.2-0.1-0.2-0.1l-0.1-0.1h-0.2c0,0-0.3-0.1-0.2-0.3L68.4,36l0.1-0.4
	l0.4-0.2c0.1-0.1,0.1-0.1,0.2-0.2c0.1-0.1,0.1,0.1,0.3,0.1c0.2,0.1,0.4,0.2,0.6,0.4c0.1,0.2,0.8,0.8,1.2,1.3c0.4,0.5,1.5,2,1.7,2.3
	s0.2,0.4,0.3,0.4c0.1,0.1,0.1,0.1,0.3,0.1c0.2,0,0.3-0.1,0.4-0.3c0.1-0.1,0.1-0.1,0-0.4c0-0.2-0.1-0.4-0.1-0.5l-0.1-0.2
	c0,0-0.5-0.2-0.5-0.5s-0.3-0.3-0.3-0.5s-0.1-0.5,0.2-0.6c0-0.1-0.1-0.2,0.2-0.3s0.5-0.2,0.5-0.3c-0.1-0.3-0.2-0.7-0.3-0.9
	c0,0-0.1-0.3,0.1-0.2s0.8,0.4,0.9,0.8C74.9,35.7,75.3,35.7,75.6,35.8z"/>
<path d="M13.4,41.4c-0.2-0.1-0.4-0.2-0.5-0.2c-0.2-0.1-0.1-0.2-0.1-0.2l0.1-0.2v-0.2l0.1-0.3l0.1-0.2c0,0,0.4-0.5,0.5-0.7
	c0.1-0.2,0.2-0.4,0.2-0.6v-0.1c-0.2,0-0.4,0.1-0.6,0.1c-0.2,0.1-0.4,0.2-0.6,0.2c-0.1,0-0.3,0-0.4,0c-0.2-0.1-0.4-0.2-0.6-0.2
	c0,0-0.7-0.4-0.8-0.4c-0.1,0-0.2-0.1-0.2-0.1c-0.1-0.2-0.1-0.5-0.2-0.7c-0.1-0.1-0.3-0.8-0.5-0.7s-0.4,0.3-0.4,0.6
	c0,0.3-0.1,0.6-0.2,0.9c0,0.1-0.2,0.4-0.2,0.5C9.2,38.9,9.1,39,9,39l-0.4,0.4v0.4l-0.1,0.1L8.7,40L8.6,40l0.1,0.1H8.7l0.1,0.1
	l-0.1,0.1l0.1,0.4c0,0.1,0,0.2,0.1,0.4C8.9,41,8.9,41.7,9,42c0.1,0.5,0,1.1-0.1,1.7c-0.1,0.3-0.1,0.6,0,0.8c0.1,0.4,0.2,0.8,0.4,1.2
	c0.4,0.5,0.5,1.1,0.2,1.3c-0.2,0.2-1.2,1.1-1.4,1.4c-0.2,0.3-1,1-1,1s-0.5,0.5-0.6,0.7c-0.1,0.2-0.2,0.2-0.1,0.2s-0.1,0.3,0,0.4
	c0.1,0.1,0.1,0.2,0.2,0.2c0.1,0,0.2,0.1,0.2,0.1c0.2,0,0.3-0.1,0.5-0.1c0.1-0.1,0.2-0.2,0.4-0.4l0.1-0.2c0.1-0.1,0.1-0.1,0.2-0.1
	C8,50,8.1,49.9,8.2,49.8c0,0,0,0.1,0.1,0.1c0.1,0,0.2-0.4,0.5-0.5s1.2-0.5,1.2-0.5s1.2-0.5,1.4-0.7c0.2-0.1,0.4-0.3,0.5-0.5
	c0.1-0.1,0.2,0,0.2,0.1c0.1,0.2,0.2,0.4,0.3,0.5c0,0,0.1,0.5,0.2,0.9c0.1,0.4,0.4,1.2,0.1,1.7c-0.2,0.5-0.2,0.8-0.4,0.8
	c-0.2-0.1-0.5,0-0.7,0.2c-0.2,0.3-0.2,0.5-0.1,0.5c0.1,0,0.2,0.1,0.2,0.1c0.1,0,0.2,0,0.4,0h0.4c0.2,0,0.4,0,0.5-0.1l0.3-0.3
	c0.1-0.1,0.2-0.2,0.2-0.4c0.1-0.2,0.2-0.4,0.3-0.5c0.1-0.3,0.1-0.5,0.1-0.8l0.6-2.8c0,0,0.1-0.4,0.4-0.5c0.3-0.1,1.8-0.2,2.1,0.1
	c0.4,0.3,0.5,0.1,0.8,0.6c0.2,0.3,0.3,0.7,0.4,0.9c0.1,0.4,0.1,0.5,0.2,0.7c0.1,0.1,0.2,0.2,0.3,0.4c0.2,0.3,0.1,0.7-0.2,0.9
	c0,0-0.1,0.1-0.1,0.1c-0.6,0.3-1.1,0.7-1.4,0.6c-0.2-0.1-0.8,0.1-0.8,0.3s0.1,0.5,0.4,0.5c0.4,0.1,0.7,0.1,1.1,0.1
	c0.6-0.2,1.2-0.5,1.8-0.8c0.7-0.4,1.1-0.7,1.1-0.8c0.1-0.2-0.1-0.2-0.1-0.3c0.1-0.1,0.1-0.8,0.2-1.1c0.1-0.3,0.1-0.7,0-0.9
	c0-0.2,1.1,0.7,1.7,0.8c0.6,0.2,2.7,0.8,3,0.9c0.3,0.2,0.3,0.2,0.4,0.5c0.1,0.4,0.2,1.3,0.1,1.2s-0.7,0.1-0.7,0.4
	c-0.1,0.3,0.1,0.7,0.2,0.6c0.1-0.1,0.2-0.1,0.3,0H26c0,0,0.2,0.1,0.4-0.3c0.2-0.4,0.2-0.8,0.2-1.2c-0.1-0.4,0-1.8,0-1.8
	s0.1-0.6-0.2-0.7c-0.7-0.4-1.3-0.9-1.8-1.5c-0.4-0.4-0.5-0.8-0.5-1.3c0-0.5-0.1-0.9-0.2-1.4c-0.2-0.3-0.2-0.7,0-1
	c0.2-0.2,1.3-0.9,1.7-1.5c0.4-0.7,0.2-0.5,0.2-0.5l0.1-0.7l0.1-0.3v-0.2l-0.1,0.1l0.1-0.4l0.1-0.2v-0.2c0.1-0.4,0.1-0.8,0.1-1.2
	c-0.1-0.2-0.1-0.4-0.1-0.5l0.1,0.3c-0.1-0.2-0.1-0.4-0.2-0.5c-0.1-0.2-0.2-0.5-0.4-0.8l-0.4-0.5l-0.1-0.1c-0.1-0.2-0.3-0.3-0.5-0.4
	c-0.2-0.1-0.5-0.2-0.5-0.2l0.1,0.1c-0.1-0.1-0.3-0.2-0.5-0.2s-0.4,0-0.6,0H23c-0.2,0-0.4,0.1-0.7,0.1c-0.1,0.1-0.2,0.1-0.3,0.2
	s-0.1,0.1-0.2,0.2s-0.2,0.1-0.4,0.2l-0.3,0.3l-0.1,0.1v0.2c0,0-0.1,0,0,0.1c0.1,0.1,0.2,0.3,0.4,0.2c0.1-0.1,0.3-0.1,0.5-0.2
	c0.5-0.3,1.1-0.3,1.7,0c0.8,0.4,1.4,1.2,1.3,2.1c-0.1,1.2,0,2.5-1.8,3.6c-0.5,0.1-1.1,0.1-1.6-0.2c-1.4-0.7-2.9-1.1-4.4-1.5
	c-0.8-0.2-1.5-0.1-2.2,0.1C14.4,41.1,13.9,41.3,13.4,41.4z"/>
<path d="M37.4,49.8c-0.8,0.1-1.6-0.2-2.1-0.9c-0.8-1.1-1.1-2.6-1.6-3c-0.5-0.4-0.8-0.7-1.3-0.5c-0.5,0.1-1,0.3-1.4,0.6
	c-0.1,0.1,0.2,0.2,0.2,0.2c0.2,0,0.5,0,0.7-0.1c0.4-0.1,0.9-0.1,1.1,0.2c0.2,0.2,0.4,0.5,0.6,0.8c0.1,0.3-0.1,0.2-0.1,0.2
	c0,0.2,0.1,0.5,0.2,0.7c0.2,0.2,0.5,0.6,0.5,0.7c-0.1,0.1,0.3,0.7,0.3,0.7l-0.1,0.2l0.2,0.2c0.1,0.1,0.2,0.2,0.3,0.3
	c0.2,0.1-0.1,0.1-0.1,0.1c0.2,0.1,0.3,0.2,0.5,0.3c0.1,0.1,0.2,0.2,0.4,0.2c0.5,0.2,1,0.4,1.5,0.5c0.1,0.1,0,0.4,0,0.4
	s-0.5,0-0.6,0.2c-0.1,0.2-0.2,0.8,0.1,0.8c0.1,0,0.3,0,0.4,0c0.2,0,0.3,0,0.5,0c0.1,0,0.3,0,0.4,0l0.1-0.2c0,0,0.1-0.2,0.4-0.1
	c0.3,0.1,0.4,0.1,0.5,0c0.1-0.1,0.2-0.2,0.2-0.4c0.4-0.1,0.7-0.1,1-0.1c0.1,0.1,0.3,0.1,0.5,0.2c0,0,0.1,0.2,0.2,0.2
	s0.2,0.2,0.2,0.2s-0.1,0.2,0,0.2c0.4,0.1,0.7,0.1,1,0.1c0.3,0,0.5,0.1,0.5-0.1c0-0.1,0-0.1,0-0.2l0.3,0.1c0,0,0.5,0.1,0.5-0.1
	c0.1-0.2,0.1-0.2,0-0.4c-0.1-0.1-0.1-0.2-0.2-0.3l0-0.3l-0.4-0.1c0.4-0.1,0.7-0.3,0.9-0.5c0.4-0.3,1.2-0.9,1.1-2.1
	c-0.1-0.7-0.2-1.2-0.4-1.8c-0.1-0.3-0.3-0.4-0.4-0.8c-0.1-0.5-0.3-1.1-0.5-1.5c-0.4-0.8-0.8-1.7-1.4-2.4c-0.3-0.4-0.7-0.7-1-0.9
	c0,0,0,0.1-0.1-0.1c-0.1-0.2-0.1-0.4-0.2-0.6c-0.1-0.1-0.4-0.6-0.4-0.6c0.1-0.2,0.1-0.5,0.1-0.7c0-0.3,0.1-0.6,0.2-0.9l0.1-0.3
	l0.1-0.4c0,0,0.2-0.6,0.3-0.8c0.1-0.2,0.1-0.4,0.1-0.7c-0.1-0.1,0.1-0.4-0.2-0.5c-0.4-0.1-0.7,0.1-0.9,0.4c-0.3,0.3-0.9,0.9-0.9,0.9
	s-1.5-0.1-1.8,0.1c-0.2-0.3-1.4-1.5-1.4-1.5s-0.8-0.3-0.8,0.3c0.1,0.5,0.2,1.1,0.4,1.6c0,0.1,0.1,0.2,0.1,0.4l0.1,0.1
	c0.1,0.1,0.1,0.3,0.1,0.5c0.1,0.5,0.2,0.9,0.4,1.4c0.1,0.1,0.2,0.3,0.2,0.5c-0.1,0.1-0.1,0.2-0.2,0.4c-0.2,0.4-0.3,0.9-0.2,1.4
	c0.1,0.7,1.1,3.7,1.2,4c0.1,0.2,0.1,0.5,0.1,0.8l0.2,0.8l0.1,0.5c-0.1,0.1-0.2,0.3-0.2,0.5c0,0.4,0.1,0.7,0.2,1.1
	C37.4,49.6,37.4,49.7,37.4,49.8z"/>
<path d="M56.9,37.1c-0.2,0.1-0.5,0.2-0.7,0.2c-0.2-0.1-0.4-0.1-0.7-0.1c-0.3,0-0.6,0.1-0.8,0.1c-0.2,0.1-0.2,0.2-0.5,0.1
	c-0.2-0.1-0.4-0.2-0.6-0.3c-0.1-0.1-0.3-0.2-0.4-0.3c-0.4-0.4-0.8-0.8-1.2-1.1c-0.2-0.1-0.6-0.4-0.8,0s-0.2,0.8,0,1.1
	c0.1,0.4,0.2,0.8,0.2,1.2c0,0.2,0,0.4,0.1,0.7c0.1,0.2,0,0.3,0.1,0.4c0.1,0.1,0.2,0.2,0.1,0.4c-0.1,0.1-0.6,0.8-0.5,1
	c0.1,0.5,0.2,1,0.4,1.5c0.2,0.4,0.4,0.4,0.4,0.8c0.1,0.5,0,1.1-0.2,1.6c-0.2,0.4-0.2,0.8-0.2,1.2c0.1,0.4,0.2,0.2,0.1,0.7
	c-0.1,0.5,0.2,0.3-0.1,0.7c-0.4,0.4-0.7,0.8-0.5,1.5c0.2,0.7,0.4,1.1,0.5,1.5s0.4,0.4,0.1,0.7c-0.3,0.3-0.7,0.1-0.8,0.4
	c-0.2,0.4-0.3,0.8-0.3,1.2c0,0.2,0,0.5,0.2,0.5c0.1,0,0.2,0,0.4,0c0.1,0.1,0.2,0.1,0.2,0.1c0.1,0,0.3,0,0.4,0h0.1l0.5-0.2l0.3-0.2
	c0,0,0.1,0.1,0.2-0.1c0.1-0.1,0.2-0.3,0.4-0.4l0.1-0.2c0.2-0.1,0.4-0.2,0.5-0.5c0.1-0.2,0.2-0.5,0.2-0.7c0,0,0.1-0.2,0.2-0.2
	s0.5,0.1,0.4,0.3c-0.1,0.1-0.2,0.2-0.3,0.3c-0.2,0.1-0.4,0.4-0.4,0.6c0,0.4-0.2,0.8,0,0.9c0.2,0.1,0.7,0.3,0.7,0.3l0.2-0.1
	c0,0-0.2,0.2,0.2,0.1c0.4-0.1,0.7-0.1,0.7-0.1s0,0,0.4-0.1c0.4-0.1,0.5-0.1,0.7-0.3s-0.1-0.3,0.7-0.7c1.1-0.5,2.2-0.8,3.3-1
	c0.5,0.1,0.9-0.1,1.3-0.5c0.4-0.3,0.8-0.6,1.1-1c0.3-0.4,0.3-0.4,0.4-0.4s0.4,0,0.4,0s0.6,0,0.7-0.4s0.2-0.1,0-0.7
	c-0.2-0.6-0.3-0.3-0.2-0.7s0.7-1.8,0.5-2.8c-0.2-0.8-0.5-1.5-0.8-2.2c-0.1-0.4-0.4-1.3-1.1-1.5c-0.5-0.2-0.9-0.2-1.4,0
	c-0.3,0.1-0.3,0.1-0.8-0.1c-0.4-0.2-0.7-0.2-1.1-0.3c-0.1,0-0.5,0.1-0.5,0.1c-0.2-0.2-0.3-0.4-0.4-0.5c0-0.1,0-0.2,0.1-0.4
	c0.2-0.2,0.2-0.5,0.3-0.7c-0.1-0.4,0-0.7,0.1-1c0.1-0.4,0.1-0.9,0.1-1.4c0-0.3-0.2-0.5-0.4-0.4c-0.4,0.1-0.8,0.4-1.1,0.7
	C57.7,36.3,56.9,37.1,56.9,37.1z"/>
</svg>
