<?xml version="1.0" encoding="utf-8"?>
<!-- Generator: Adobe Illustrator 26.0.3, SVG Export Plug-In . SVG Version: 6.00 Build 0)  -->
<svg version="1.1" id="Ñëîé_1" xmlns="http://www.w3.org/2000/svg" xmlns:xlink="http://www.w3.org/1999/xlink" x="0px" y="0px"
	 viewBox="0 0 100 100" style="enable-background:new 0 0 100 100;" xml:space="preserve">
<style type="text/css">
	.st0{fill:#34495E;}
</style>
<rect x="1.7" y="53.2" class="st0" width="96.5" height="2"/>
<path d="M23.3,61.7c-0.2,0.6,0.1,0.9,0.6,1.2c0.9,0.5,1.9,0.7,3,0.7c0.6-0.1,1-0.6,1.3-1.2c0.2-0.1,0.4-0.2,0.6-0.4
	c-0.1,0.5-0.3,1.3-0.1,1.5s0.9,0.3,1.1,0.2c0,0,0.1,0,0.1-0.1c0.1-0.2,0.1-0.4,0.1-0.6c1-1.4,1.5-3,1.3-4.7c1-0.7,1.7-1.6,2.2-2.7
	c-0.3,2.5-0.4,5.1-0.3,7.6c0.1,0.8-0.2,2.6,0.7,2.8c0,0,0,0,0-0.1c0,0,0,0,0,0.1c0,0.4,0,0.8,0,1.3c0,0,0,0.1,0.1,0.1
	c0,0.3,0,0.7,0.1,1c-0.1,0.4-0.1,0.8,0,1.2c-0.1,0.3-0.1,0.7-0.2,1c0,0.1,0,0.2,0,0.3c0,0,0,0.1,0,0.1c-0.1,0.1-0.1,0.2-0.1,0.3
	c-0.1,0.2-0.1,0.4-0.1,0.6c-0.1,0.3-0.1,0.7,0,1c0.3,0.6,1.4,0.6,1.9,0.5c0.6,0,1.1-0.3,1.4-0.8c0.1-0.5,0.1-1,0-1.4
	c0-0.5-0.1-1-0.2-1.6l0,0c0.1-0.9-0.1-1.8-0.6-2.6l0,0c0.1-0.2,0.1-0.4,0-0.6l0,0l0,0c0-0.1-0.1-0.2-0.1-0.3c0.9-0.3,0.8-1.9,1-2.7
	c0.6-2.3,0.8-4.6,0.6-6.9l0,0c0-0.4,0.2-0.8,0.4-1.2c0.7-1.1,1.9-0.9,3-0.8c0.9,0.2,1.9,0.2,2.8,0.1c3.5,0.7,4.4-1.6,3.5-4.3
	c0,0,0,0.1,0,0.1c0,0,0-0.1,0-0.1c0.3-0.5-0.8-2.6-1.4-3.8c0.4-1,0.5-2.1,0.3-3.1V43c0.1-0.8,0.1-1.6,0-2.3c0.7-0.8,0-1.8-0.5-2.6
	c-0.3-0.5-0.6-1-1.2-1.2c-0.3-0.1-0.6-0.1-0.9-0.1c0.8-1.6,1.7-2.9,1.1-4.9c-0.4-1.3-1.5-3-2.8-3.4h-0.1l0,0
	c-1.5-0.7-2.7-0.1-3.9,1.2c-0.6,0.7-1,1.5-1.4,2.3l0,0l0,0c0,0,0,0.1-0.1,0.1c-2.9,4.1-4.3,9.1-3.8,14.1c0,0.1,0.1,0.1,0.2,0
	c0.2-0.4,0.3-0.8,0.4-1.2c0.1,0.3,0.2,0.6,0.3,0.9c0,0,0.1,0.1,0.1,0.1c0,0,0,0,0.1-0.1c0.1-0.8,0.1-1.5,0.1-2.3
	c0-0.6,0.1-1.1,0.2-1.7c0.1,0.2,0.2,0.4,0.3,0.6l0,0c0.1,1.5,0.1,2.9,0,4.4c0,0.1,0.2,0.2,0.2,0c0.1-0.7,0.5-1.3,0.6-2
	c0,0,0-0.1,0-0.1c0,0.5,0.1,1,0.1,1.5c0,0.1,0,0.1,0.1,0.1c0,0,0,0,0.1,0c0.3-0.2,0.6-0.4,0.7-0.7c0,0.2,0.1,0.5,0.3,0.7
	c0,0,0.1,0,0.1,0c0.2,0,0.3-0.1,0.4-0.3c0.1,0.1,0.2,0.3,0.3,0.4c0.1,0.1,0.1,0.2,0.2,0.3c-0.1-0.1-0.2-0.2-0.2-0.3
	c-1.5-0.3-2.5,0.9-3.3,2.4c-1,1.7-2,3.4-3,5.1c-0.5,0.9-1.3,1.7-1.8,2.6l0,0c-0.3,0.2-0.6,0.5-0.9,0.8l0,0c-0.3,0.1-0.5,0.5-0.6,0.9
	c-0.4,0.1-0.8,0.7-1,1c-0.2,0.3-0.4,0.6-0.7,0.8c-0.1,0.1-0.4,0.3-0.4,0.4l0,0C24.7,60.8,23.6,61,23.3,61.7z M43.6,49
	c-0.8-0.1-1.6-0.5-2.3-1.1l0,0H41c-0.2,0.1-0.4,0.1-0.5,0c-0.3,0-0.5,0-0.8-0.1c-0.7,0.2-1.4,0-1.8-0.6c-0.1-0.1-0.3-0.3-0.4-0.5
	c0.1,0.2,0.3,0.3,0.4,0.5c0.4,0.5,1.1,0.8,1.8,0.6C40,48,40.2,48,40.5,48c0.2,0.1,0.4,0.1,0.5,0h0.3l0,0
	C41.9,48.5,42.7,48.9,43.6,49c0.9,0.2,1.7,0.4,2.5,0.8c0.2,0.1,0.8,0.7,1,0.7c0.1,0,0.1,0,0.1-0.1c0,0-0.1,0.1-0.1,0.1
	c-0.3,0-0.8-0.6-1-0.7C45.3,49.4,44.5,49.1,43.6,49z M34,65.9L34,65.9L34,65.9L34,65.9z M31.1,58c0,0.1,0,0.1,0,0.2l0,0
	C31.1,58.1,31.1,58,31.1,58z M31.2,58.2L31.2,58.2L31.2,58.2C31.2,58.2,31.2,58.2,31.2,58.2L31.2,58.2z M31.2,58.5
	C31.2,58.4,31.2,58.4,31.2,58.5C31.2,58.4,31.2,58.4,31.2,58.5z"/>
<path d="M74.5,39.7c-0.1,1.4-0.1,2.8,0.1,4.2c0,0.4,0.1,0.9,0.2,1.3c-0.1,0.9,0.1,1.7,0.7,2.4c0,0,0.1,0.1,0.1,0.1l0,0
	c0,0-0.1,0-0.1-0.1c0.4,1.7,0.8,3.4,1,5.1l0,0c0.2,0.1,0.4-0.2,0.5-0.6c0.1,0.5,0.3,1,0.7,1.4c0.4,0.3,1,0.5,1.5,0.4
	c0.8,0.1,1.6,0.1,2.4,0.1c1.6,0,3.1,0,4.7,0.1l0,0c0,0.7,0.1,1.3,0.3,2c-0.1,1.2-0.1,2.4,0.1,3.6c0,0.3,0.1,0.5,0.3,0.6l0,0
	c0,0.1,0,0.3,0,0.4c-0.1,0.3-0.1,0.6-0.1,0.8l0,0c-0.1,0.2-0.1,0.4,0,0.7c-0.5,0.5-0.9,1.2-1.2,1.9c-0.2,0.4-0.1,0.8,0.3,1
	c-0.1,0.3-0.3,0.7,0.1,0.9c0.4,0.2,0.8,0.3,1.2,0.5c0.1,0,0.4,0.2,0.7,0.3l0.1,0.1c-0.1,0.5-0.2,1-0.2,1.5c0,0.3-0.2,0.7,0.1,0.8
	c0.3,0.1,0.5,0.2,0.8,0.2c0.3,0.1,0.5,0.1,0.8,0.2c0.2,0,0.2-0.2,0.2-0.4c1.1,0.4,2.3,0.7,3.5,0.6c0.8,0,2.1,0.2,2.6-0.6
	c0.4-0.6,0.1-1-0.5-1.4c-1.3-0.6-2.6-1.3-3.8-2.1v-0.1c-0.1-0.2-0.1-0.5-0.3-0.7c-0.1-0.1-0.1-0.2-0.2-0.3c0.1,0,0.1-0.1,0.1-0.2
	c0-0.8-0.1-1.7-0.2-2.5l0,0c0.1-1,0.1-2,0.1-2.8c0-0.4,0.1-0.8,0.1-1.3c0.1-2,1.2-6-0.8-7.4c0-0.7,0-1.3-0.2-2
	c-0.3-1-0.6-2.1-1.6-2.4c0,0,0,0.1,0,0.1c-0.1,0-0.1,0-0.2,0l0,0c0.1,0,0.1,0,0.2,0c0,0,0,0,0-0.1c0-0.1,0-0.1,0-0.2
	c-0.1-0.2-0.3-0.3-0.4-0.3l-0.6-0.2c0-1.6-0.2-3.1-0.6-4.6c0.3,1,0.6,2,0.7,3.1c0,0,0.1,0,0.1,0c0.1-1.5-0.2-3.1-0.9-4.5
	c-0.2-0.5-0.5-1.1-0.8-1.6c-0.3-1-1.3-1.5-1.4-2.9s0.4-2.7,0.1-4.1c-0.2-1.2-1.2-3.1-2.6-3.2l0,0c-1.4-0.6-2.8,0.3-3.4,1.7
	c-0.2,0.5-0.4,1-0.4,1.6c0,0,0,0.1,0,0.1c-0.1,0.6-0.1,1.1,0,1.7c0,0.6,0,1.3,0,1.9c-0.1,0.4-0.4,0.7-0.7,0.9
	c-0.3,0.2-0.6,0.4-0.9,0.6l0,0c-0.2,0.1-0.4,0.1-0.6,0.2c-0.4,0.1-0.7,0.3-1,0.5c-0.3,0.4-0.5,0.8-0.5,1.3l0.1-0.3
	c0-0.1,0-0.2,0.1-0.3c0,0.1-0.1,0.2-0.1,0.3l-0.1,0.3l0,0C74.5,38.8,74.5,39.5,74.5,39.7z M75,37.1L75,37.1z M76.2,36.6L76.2,36.6
	L76.2,36.6C76.2,36.6,76.1,36.6,76.2,36.6L76.2,36.6z M76.9,39C76.9,39,76.9,39,76.9,39l0.1,0.4L76.9,39C76.9,39,76.9,39,76.9,39z
	 M77.2,39.8c0,0.1,0,0.2,0,0.2C77.2,40,77.2,39.9,77.2,39.8L77.2,39.8z M77.3,40.8c0.2-0.4,0.5-0.8,0.7-1.2c0.1-0.2,0.1-0.3,0.2-0.5
	c-0.1,0.2-0.1,0.3-0.2,0.5C77.8,40,77.6,40.4,77.3,40.8L77.3,40.8z M76.8,36.5c-0.2,0-0.4,0-0.6,0.1C76.4,36.5,76.6,36.5,76.8,36.5
	L76.8,36.5z M78.1,37c0.1,0.2,0.2,0.5,0.2,0.8C78.2,37.5,78.2,37.2,78.1,37L78.1,37c-0.3-0.3-0.7-0.4-1.1-0.5
	C77.4,36.5,77.8,36.7,78.1,37L78.1,37z M78.7,43.3c0,0.1,0,0.2,0,0.3C78.7,43.4,78.7,43.3,78.7,43.3c0-1,0.5-2-0.1-3
	c-0.1,0.3-0.3,0.6-0.6,0.8c-0.2,0.2-0.4,0.4-0.6,0.6l0,0c0.2-0.2,0.4-0.4,0.6-0.6c0.2-0.2,0.4-0.5,0.6-0.8
	C79.3,41.2,78.8,42.2,78.7,43.3L78.7,43.3z M80,50c0.1-0.2,0.2-0.3,0.2-0.5C80.2,49.6,80.1,49.8,80,50z M83.4,49.3L83.4,49.3z
	 M85,45.4L85,45.4c0-0.3,0-0.6,0.1-0.9C85,44.8,85,45.1,85,45.4z M84.9,45.4L84.9,45.4z M79.4,43.1v-0.4c0-0.3,0.1-0.6,0.2-0.9
	c0.3-0.3,0.5-0.7,0.7-1.1c-0.1,0.4-0.4,0.8-0.7,1.1c-0.1,0.3-0.1,0.6-0.2,0.9V43.1z M81.9,37.1h0.2h0.2c0.3,0,0.6-0.1,0.8-0.3
	c-0.2,0.2-0.5,0.3-0.8,0.3h-0.2H81.9c-0.3,0-1.4,0.1-1.6-0.2C80,37.4,79.9,38,80,38.5c0,0.2,0.1,0.3,0.1,0.5
	c-0.1-0.2-0.1-0.3-0.1-0.5c-0.1-0.5,0-1.1,0.3-1.6C80.6,37.3,81.6,37.2,81.9,37.1L81.9,37.1z M80.3,39.3c0,0,0,0.1,0.1,0.2
	C80.4,39.5,80.3,39.4,80.3,39.3L80.3,39.3z M83.5,36.8c-0.1-0.1-0.2-0.2-0.3-0.3l0,0C83.3,36.6,83.4,36.7,83.5,36.8L83.5,36.8z
	 M82.1,45.4L82.1,45.4z M79,45.3L79,45.3c-0.2-0.4-0.3-0.9-0.3-1.3C78.8,44.4,78.9,44.9,79,45.3L79,45.3z M78.7,43.5L78.7,43.5z
	 M77.5,42l-0.1-0.3L77.5,42z M78,45l0.2,0.1L78,45c0-0.1,0-0.2,0-0.3C78,44.8,78,44.9,78,45L78,45z M85.1,38.8c0,0.4,0,0.8,0,1.2
	C85.1,39.6,85.1,39.2,85.1,38.8c-0.3-0.3-0.6-0.6-0.9-1c-0.1-0.2-0.3-0.5-0.4-0.7c0.2,0.2,0.3,0.5,0.4,0.7
	C84.4,38.2,84.7,38.5,85.1,38.8L85.1,38.8z M89.2,59.8h-0.1c0-0.1,0-0.1-0.1-0.2c0,0,0.1,0.1,0.1,0.2H89.2z M85.9,47.1
	c-0.2,0.1-0.3,0.2-0.4,0.2c0,0-0.1,0-0.1,0c-0.7,0.6-1.4,1.3-2,2l0,0l0,0c0.6-0.7,1.3-1.4,2-2c0,0,0.1,0,0.1,0
	C85.6,47.3,85.7,47.3,85.9,47.1c0.4-0.3,0.8-0.4,1.1-0.7c0.1,0,0.3-0.1,0.4-0.1c0.2,0,0.3-0.1,0.5-0.1c-0.2,0-0.3,0.1-0.5,0.1
	c-0.1,0-0.3,0.1-0.4,0.1C86.7,46.7,86.2,46.8,85.9,47.1z M86.2,54.1L86.2,54.1C86.2,54.1,86.2,54.2,86.2,54.1
	C86.2,54.2,86.2,54.2,86.2,54.1L86.2,54.1z M86.2,53.8c0-1.2,0.1-2.4,0.1-3.5C86.3,51.4,86.2,52.6,86.2,53.8c0,0.1,0,0.2,0,0.3
	C86.2,54,86.2,54,86.2,53.8L86.2,53.8z M85,49.3L85,49.3h0.2H85L85,49.3z M80.3,49.4c0.2-0.3,0.4-0.6,0.7-0.9
	C80.7,48.8,80.5,49.1,80.3,49.4L80.3,49.4z M78.8,51.2L78.8,51.2L79,51L78.8,51.2z M78.6,51.4L78.6,51.4L78.6,51.4z M78.8,51.3
	L78.8,51.3z M78.6,51.5L78.6,51.5L78.6,51.5z M78.3,51.7L78.3,51.7L78.3,51.7l0.1-0.1L78.3,51.7z M77.3,51.1L77.3,51.1l0.1,0.1
	L77.3,51.1z M77.3,51L77.3,51z M77.1,50.8L77.1,50.8L77.1,50.8z M77,50.7L77,50.7z M77,50.7L77,50.7z M76.1,48
	c0.1,0,0.2,0.1,0.3,0.1c1.5,0.2,3.1,0.1,4.5-0.3c-1.5,0.4-3,0.5-4.5,0.3C76.3,48,76.2,48,76.1,48z M74.9,37.1L74.9,37.1L74.9,37.1z
	 M74.7,37.5c0-0.1,0.1-0.2,0.1-0.3C74.8,37.3,74.7,37.4,74.7,37.5z"/>
<path d="M49.1,42c-0.2,0.8,0.1,1.7,0.8,2.2c0.7,1.3,1.6,2.5,2.7,3.5l0,0c-0.1,0.5-0.1,1.2,0.3,1.4c0.1,0,0.1,0.1,0.2,0.1l0,0
	c0,0,0,0.1,0,0.1L53,49.7c-0.1,0.2-0.2,0.5-0.2,0.8l0,0c-0.2,0.5-0.4,1-0.5,1.6c-0.1,0.5,0,1,0.2,1.5c0.3,0.6,0.8,1,1.3,1.3
	c0.3,0.2,1.5,0.7,2.3,1c0.3,1.9,0.7,3.7,1.2,5.6c0.5,1.4,0.7,3.1,1.2,4.5c0.2,0.5,0.5,0.9,0.9,1.1c0,0.6-0.1,1.2-0.3,1.8
	c-0.2,0.4-0.5,1-0.4,1.5s1.1,0.8,1.6,1c0.7,0.2,1.5,0,1.9-0.6c0.5-0.8,0-2.1-0.2-3c0,0,0-0.1,0-0.1L62,65.3c0-0.1,0-0.2,0-0.3
	c0-0.4-0.1-0.8-0.3-1.2c-0.3-0.9-0.6-1.8-0.6-2.8c0-1.2-0.1-2.3-0.3-3.5c0.2-1.1,0.3-2.2,0.2-3.3c2,0.4,3.9,0.7,5.8-0.4
	c0.2,2.9-0.4,5.7-0.4,8.5c-0.2,0.6-0.2,1.2,0,1.7c-0.2,0.6-0.4,1.3-0.8,1.8c-0.1,0.2-0.5,0.6-0.5,0.9c0,0.3,0.3,0.5,0.6,0.7
	c0.5,0.3,1,0.6,1.4,1c0.1,0.9,0.5,1.7,1.2,2.3c0.6,0.5,1.3,0.7,2.1,0.5c0.7-0.2,0.7-0.7,0.4-1.3c-0.5-0.9-1-1.8-1.4-2.7
	c-0.2-0.7-0.2-1.5-0.1-2.2c0.3,0,0.6-0.1,0.8-0.3c1-0.7,0.9-5.6,1-6.2l0.2-2l0,0c0.2-0.9,0.3-1.9,0.3-2.8c0.2-2.1,0.1-3.7-1.5-5
	c0.3-0.3,0.5-0.8,0.6-1.2c0.4-0.6,0.5-1.4,0.4-2.1c-0.1-0.7-0.3-1.3-0.6-1.9l0,0c0.4-2.5,0.5-4.6-1.3-6.6l0,0
	c0.2-0.7,0.3-1.4,0.2-2.1l0,0c0.1-0.3,0.2-0.7,0.3-1c0.1-0.2,0.1-0.4,0.2-0.6c0.1-0.1,0.1-0.2,0.1-0.2c0.1-0.2,0.2-0.4,0.3-0.5
	c0.1-0.1,0.2-0.2,0.3-0.3c0.1-0.1,0.1-0.3,0-0.5c0-0.1-0.1-0.1-0.2-0.1c1-1.4,0.8-3.3-0.6-4.3c-0.2-0.1-0.4-0.2-0.6-0.3
	c-1-0.5-2.2-0.5-3.2,0.1c-0.7,0.5-1.1,1.2-1.2,2c-0.1-0.1-0.1-0.2-0.2-0.2c-0.3,0-0.4,0.5-0.5,0.7c-0.2,0.5-0.4,0.9-0.2,1.4
	c0.1,0.1,0.2,0.2,0.3,0.3c0,0,0.1,0,0.1,0c0,0.1-0.1,0.3-0.1,0.4c0,0.1-0.1,0.2-0.1,0.2l0,0c-1.7,0.6-3.7,0.3-5.5,0.3
	c-0.5-0.1-1,0-1.5,0.3l0,0c-0.5,0.3-1,0.7-1.5,1.1c-0.9,0.6-1.7,1.2-2.5,1.9c-1,1-1.3,1.3-0.9,2l0,0l0,0c-0.8,0.7-1.4,1.5-1.8,2.5
	C49.8,40.6,49.4,41.3,49.1,42z M53.1,37.5L53.1,37.5z M53.1,38L53.1,38c0-0.1,0-0.2,0-0.3C53.1,37.8,53,37.9,53.1,38L53.1,38z
	 M54.6,45.7l0.2,0.3c0.6,0.7,1.2,1.4,1.6,2.2c-0.5-0.8-1-1.5-1.7-2.1L54.6,45.7z M55.1,40.1L55.1,40.1c0,0.2-0.2,0.4-0.5,0.6
	C54.9,40.5,55.1,40.3,55.1,40.1L55.1,40.1z M54.5,40.8L54.5,40.8L54.5,40.8z M54.3,41L54.3,41L54.3,41z M54.2,41.1L54.2,41.1
	L54.2,41.1z M54.8,39.7L54.8,39.7L54.8,39.7l-0.3-0.3L54.8,39.7z M55,40L55,40L55,40L55,40z M55,40.1L55,40.1L55,40.1L55,40.1z
	 M58.7,49.4c-0.1-0.1-0.3-0.2-0.4-0.2l-0.2-0.1l0.2,0.1C58.4,49.2,58.6,49.3,58.7,49.4L58.7,49.4z M59.6,50.9L59.6,50.9z M59.7,51
	L59.7,51L59.7,51L59.7,51z M61.1,48.4c0,0,0,0.1,0,0.1S61.1,48.5,61.1,48.4z M63.2,33.9c0-0.1,0-0.2,0-0.4
	C63.2,33.6,63.2,33.7,63.2,33.9c0,0.4,0,0.9,0,1.3C63.2,34.7,63.2,34.3,63.2,33.9L63.2,33.9z M64.5,37.2c-0.1,0.1-0.3,0.2-0.5,0.2
	c0,0-0.1,0-0.1-0.1c0,0,0.1,0.1,0.1,0.1C64.2,37.4,64.4,37.4,64.5,37.2L64.5,37.2z M67.4,36c0,0.1,0,0.1,0,0.2l0,0
	C67.4,36.1,67.4,36,67.4,36z M67.2,39.6v-0.2V39.6L67.2,39.6L67.2,39.6z M67.4,41.4c0-0.4,0-0.9-0.1-1.3
	C67.3,40.5,67.4,41,67.4,41.4L67.4,41.4z M67.2,35.2c0.2-0.1,0.4-0.2,0.6-0.3C67.7,35.1,67.5,35.2,67.2,35.2z M68.9,38L68.9,38z
	 M68.9,38.3c0,0.1,0,0.1,0,0.2S69,38.4,68.9,38.3L68.9,38.3z M68.9,38c0,0.1,0,0.2,0,0.2C68.9,38.1,68.9,38,68.9,38L68.9,38z
	 M67.9,35.2c0,0,0-0.1,0.1-0.2l0,0V35l0,0v0.1l0,0C68,35.1,67.9,35.2,67.9,35.2L67.9,35.2z M67.7,35.7l-0.1,0.2L67.7,35.7z
	 M67.5,36.2L67.5,36.2z M66.4,38.1c0.2,0.3,0.4,0.5,0.7,0.7l0,0c0,0.1,0.1,0.2,0.1,0.3c0-0.1,0-0.2-0.1-0.3l0,0
	C66.8,38.6,66.6,38.4,66.4,38.1L66.4,38.1z M66.3,37.7c0-0.3,0-0.5,0-0.8C66.2,37.2,66.2,37.5,66.3,37.7L66.3,37.7z M65.9,36.7
	c-0.2,0.1-0.5,0.2-0.8,0.2C65.4,36.9,65.7,36.8,65.9,36.7c0.1-0.1,0.3-0.1,0.4-0.2l0,0C66.2,36.6,66,36.7,65.9,36.7L65.9,36.7z
	 M69.1,37.1L69.1,37.1c0,0.1,0,0.2-0.1,0.3l0,0C69,37.3,69,37.2,69.1,37.1z M69.7,42c0,0.1,0,0.1,0,0.2S69.7,42,69.7,42
	s-0.1-0.3-0.1-0.4C69.7,41.7,69.7,41.8,69.7,42z M66.2,48.4c0,0,0.1,0,0.1-0.1 M66.3,48.3c0-0.3-0.2-0.5-0.5-0.6
	c-0.5-0.3-0.9-0.6-1.3-1c0.2-1.1,0.7-2.2,1.6-2.9c0.2-0.2,0.4-0.4,0.6-0.6c0,0.1,0,0.1,0,0.2l0,0c-0.4,0.9,0.4,2.3,0.6,3.2
	c-0.1,0.7,0.1,1.3,0.6,1.8v0.2h-0.1c-0.5,0-1-0.1-1.5-0.2L66.3,48.3z M60.9,49.3c0-0.2,0.1-0.5,0.2-0.6s0-0.1,0-0.1c0,0,0,0.1,0,0.1
	C61.1,48.7,61,49.1,60.9,49.3z M54.2,49.5c-0.1,0-0.2,0-0.3-0.1C54.1,49.5,54.2,49.5,54.2,49.5L54.2,49.5z M52.6,47.8L52.6,47.8
	c0.5,0.5,0.9,0.8,1.3,1.2l0.4,0.4l0,0l0.1,0.1l0,0l-0.1-0.1l0,0L53.9,49C53.5,48.7,53.1,48.3,52.6,47.8L52.6,47.8z M52.5,42.7
	c0.4-0.6,0.9-1.1,1.4-1.5l0.2-0.2c-0.2,0.5-0.3,1-0.3,1.5c-0.1,0.6-0.1,1.2-0.2,1.8l0,0C53.2,43.8,52.8,43.3,52.5,42.7z"/>
<path d="M4.3,46.2L4.3,46.2c0.2,1.1,0.3,2.6,0.7,3.8c-0.2,0.3-0.4,0.7-0.5,1.1C4,52.7,4.2,54.5,5.1,56c0.1,2.6,1.1,5.2,1.7,7.7
	C6.6,64.8,6.7,65.9,7,67c0.1,0.4,0.5,0.8,0.9,0.7c0,0.6-0.1,1.1-0.4,1.6c-0.3,0.4-0.5,0.9-0.6,1.4c-0.2,0.6,0,0.8,0.6,1
	c0.8,0.1,1.6,0,2.3-0.4c0.5-0.3,0.8-0.9,0.9-1.5c0.2-0.2,0.4-0.5,0.5-0.8c0-0.7-0.2-1.4-0.6-2l0,0c0-0.6-0.1-1.1-0.2-1.7
	C10.1,64.5,10,63.7,10,63c0.1-0.6,0.1-1.3,0.1-1.9c-0.1-0.9-0.5-1.7-0.6-2.5c-0.2-1.1-0.1-2.2,0.2-3.2c1.9-0.5,4.8-1.3,6.9-1
	c1,0.1,1.9,0.7,2.4,1.6c-0.3,1.7-0.8,3.4-1.4,5.1c0,0.1,0,0.1-0.1,0.2c-0.2,0.6-0.5,1.3-0.7,2v0.1c-0.4,1-0.6,2-0.6,3.1
	c-0.2,0.3-0.3,0.6-0.4,0.9c-0.1,0.5-0.2,0.9-0.3,1.4c-0.1,0.2-0.1,0.5-0.1,0.7c0,0.3,0.3,0.4,0.6,0.5c0.7,0.2,1.3,0.1,2,0.3l0,0
	c0.7,0.4,1.4,0.7,2.1,0.8c0.6,0.1,1.8,0.3,2.3-0.2s0.1-0.9-0.2-1.2c-1.1-1-2.5-1.6-2.9-3.1h0.1c0.1,0.1,0.2,0.2,0.3,0.1
	c0.1,0,0.1,0.1,0.2,0.1l0,0c0.1,0,0.3,0.1,0.4,0s0.3-0.1,0.4-0.2c0.5-0.7,0.3-2.4,0.5-3.2c0.3-1.4,0.6-2.9,1-4.3l0,0
	c0.1-0.2,0.2-0.4,0.2-0.6c0.2-0.3,0.3-0.7,0.4-1c0.5-1.4,0.9-2.9,1.1-4.4c0.1-1.7-1.2-2.6-2.6-3.2c0.1-0.1,0.2-0.3,0.3-0.4
	c0.2-0.9,0.2-1.8,0.1-2.7c0-0.9-0.1-1.9-0.3-2.8c0-0.1,0-0.3-0.1-0.4c0-1.5-0.2-3-0.7-4.4c-0.1-0.2-0.2-0.5-0.3-0.8l0,0l-0.1-0.2
	l-0.1-0.2l-0.1-0.1c-0.3-0.5-0.7-1-1.1-1.1c-0.9-0.9-2.4-1.3-3.6-1.8l0,0l0,0c0.1-0.3,0.2-0.7,0.3-1.1c0.1,0.1,0.2,0,0.3-0.1
	c0.1-0.2,0.1-0.4,0.1-0.6c0.1-0.3,0.2-0.7,0.4-1c0.1-0.2,0-0.4-0.2-0.5c0,0,0,0-0.1,0c0.4-1.1,0.4-2.3-0.1-3.4
	c-0.6-1-1.6-1.6-2.8-1.7c-1.2,0-2.3,0.5-3,1.4c-0.6,0.9-0.5,2.2-0.4,3.4c-0.2,0-0.3,0.2-0.4,0.4c0,0.2,0,0.5,0.1,0.7
	c0,0.3,0.1,0.6,0.3,0.9c0.1,0.2,0.4,0.2,0.6,0.2c0,0.3,0,0.5-0.1,0.8v0.1c0,0.1,0,0.1,0,0.2s0-0.1,0-0.2v-0.1
	c-1.3,0.5-2.5,1.2-3.8,1.8c-0.7,0.3-1.2,0.7-1.7,1.3c-1.5,0.5-1.4,2.7-1.4,3.9c0,0.9-0.3,2.4,0.3,3.2l0,0
	C4.1,45.2,4.2,45.7,4.3,46.2z M13.8,37.3c0.3-0.2,0.5-0.4,0.8-0.7C14.3,36.9,14,37.1,13.8,37.3c-0.2,0.5-0.8,0.5-1.3,0.3
	C13,37.8,13.5,37.8,13.8,37.3z M15.1,38.6l-0.1,0.1L15,38.9c-0.1,0.2-0.2,0.3-0.4,0.4c-0.3,0.1-0.6-0.1-0.9-0.3l0,0
	c-0.3,0-0.6,0-0.8,0l0,0c0.3,0.1,0.6,0.1,0.8,0.1l0,0c0.3,0.2,0.6,0.4,0.9,0.3c0.2-0.1,0.3-0.3,0.4-0.5l0.1-0.1L15.1,38.6z
	 M11.7,39.3c-0.1,0.1-0.3,0.1-0.4,0C11.4,39.3,11.5,39.3,11.7,39.3z M11.8,37.9h0.1h0.2h-0.2H11.8z M12.7,38.1l0.2,0.1l0,0
	L12.7,38.1z M14.8,35.8c0,0,0,0.1,0,0.1c0,0.2-0.1,0.3-0.1,0.4c0.1-0.1,0.1-0.3,0.1-0.4C14.8,36,14.8,35.9,14.8,35.8z M14.7,37.8
	L14.7,37.8L14.7,37.8z M14.8,37.8L14.8,37.8z M15.3,38.3L15.3,38.3c0,0.1,0,0.2-0.1,0.2S15.3,38.4,15.3,38.3L15.3,38.3
	c0,0,0-0.1,0-0.2C15.3,38.2,15.3,38.2,15.3,38.3L15.3,38.3z M15.3,38C15.3,38,15.3,38.1,15.3,38C15.3,38.1,15.3,38.1,15.3,38
	L15.3,38z M15.3,48.9L15,49L15.3,48.9z M14.9,49l-0.2,0.1l-0.2,0.1l0.2-0.1L14.9,49z M7,45c-0.2,0-0.5-0.1-0.7-0.1
	C6.5,44.9,6.8,44.9,7,45c0.2-0.1,0.4-0.1,0.6,0c0,0,0,0,0,0c0,0,0,0-0.1-0.1C7.3,44.8,7.2,44.9,7,45z M7.9,48.4L7.9,48.4
	C8,47.9,8,47.3,8,46.8c0-0.2,0-0.4,0-0.6c0,0.2,0,0.5,0,0.6C8,47.3,7.9,47.8,7.9,48.4L7.9,48.4z M10.7,34.8
	c-0.2,0.8,0.1,1.7,0.8,2.3C10.8,36.5,10.5,35.6,10.7,34.8L10.7,34.8L10.7,34.8z M15.4,34.9L15.4,34.9c-0.1,0.3-0.3,0.6-0.6,0.8l0,0
	C15.1,35.5,15.3,35.2,15.4,34.9C15.4,35,15.4,34.9,15.4,34.9z M16.4,48.6L16.4,48.6h-0.1H16.4z M16.8,45.3c0.6-0.7,1-1.5,1.3-2.4
	c0,0.1,0,0.2,0,0.3c0,0.3,0,0.5,0.1,0.8c-0.2,0.3-0.1,0.8,0,1.2c0.2,1,0.5,1.9,1,2.8c-0.2,0.2-0.3,0.5-0.5,0.7l-0.2,0.1
	c-0.2,0.1-0.4,0.2-0.6,0.3V49c0-0.2-0.3-0.2-0.5-0.3c-0.2-0.1-0.4-0.1-0.7-0.2c0-0.4,0-0.8,0-1.2C16.7,46.7,16.7,46,16.8,45.3
	L16.8,45.3z M18.3,43.9L18.3,43.9z M21.4,43.4L21.4,43.4z M4.2,44.4L4.2,44.4c0.3,0.1,0.6,0.2,0.9,0.2C4.8,44.6,4.5,44.6,4.2,44.4
	L4.2,44.4z"/>
</svg>
