<svg id="Ñëîé_1" data-name="Ñëîé 1" xmlns="http://www.w3.org/2000/svg" viewBox="0 0 96.51 46.98"><defs><style>.cls-1{fill:#34495e;}</style></defs><rect class="cls-1" y="26.69" width="96.51" height="2.05"/><path d="M23.31,60.74c-.24.57.12.91.61,1.16a5.89,5.89,0,0,0,2.95.72c.64-.08,1-.61,1.3-1.18a2.86,2.86,0,0,0,.61-.39c-.13.54-.28,1.29-.12,1.53s.9.27,1.15.25a.1.1,0,0,0,.09-.08,2.8,2.8,0,0,0,.1-.59,6.7,6.7,0,0,0,1.29-4.71,6.69,6.69,0,0,0,2.23-2.74,66.76,66.76,0,0,0-.35,7.6c.06.81-.22,2.59.7,2.85a.13.13,0,0,1,0-.06.13.13,0,0,0,0,.06,6.56,6.56,0,0,0,0,1.26.11.11,0,0,0,.09.08,4.49,4.49,0,0,0,.06,1,3.13,3.13,0,0,0,0,1.15c-.06.35-.13.69-.18,1a2.32,2.32,0,0,0,0,.34.23.23,0,0,1,0,.09,1.05,1.05,0,0,0-.13.26,1.72,1.72,0,0,0-.06.57,1.45,1.45,0,0,0,0,1c.3.57,1.36.6,1.89.52a1.67,1.67,0,0,0,1.39-.85,3.58,3.58,0,0,0,0-1.42c-.05-.52-.12-1-.2-1.55h0A4.66,4.66,0,0,0,36.15,66V66a.78.78,0,0,0,0-.6h0v0a.64.64,0,0,0-.13-.26c.91-.31.81-1.89,1-2.72a21.72,21.72,0,0,0,.61-6.94v0A3.49,3.49,0,0,1,38,54.28c.67-1.09,1.89-.94,3-.81a8.36,8.36,0,0,0,2.83.13c3.47.68,4.38-1.63,3.55-4.26a.09.09,0,0,1,0,.08.09.09,0,0,0,0-.08c.26-.55-.83-2.61-1.43-3.75a6,6,0,0,0,.35-3.1V42a17.92,17.92,0,0,0,0-2.34c.68-.78,0-1.76-.54-2.59-.31-.51-.59-1-1.21-1.21a3.49,3.49,0,0,0-.93-.11c.77-1.57,1.7-2.9,1.13-4.88-.38-1.29-1.45-3-2.82-3.44l-.07,0h0c-1.54-.69-2.7-.15-3.86,1.24a9.53,9.53,0,0,0-1.39,2.31v0s0,0,0,0a.34.34,0,0,0-.06.12,20.9,20.9,0,0,0-3.8,14.09c0,.11.14.13.19,0A6.34,6.34,0,0,0,33.31,44a4.47,4.47,0,0,0,.35.92.09.09,0,0,0,.17,0,13.61,13.61,0,0,0,.07-2.3c0-.59.13-1.12.18-1.69.1.19.18.39.26.55v0a29.38,29.38,0,0,1-.05,4.4c0,.11.18.15.2,0,.13-.68.45-1.27.62-2a.45.45,0,0,0,0-.11c0,.49.06,1,.08,1.5a.1.1,0,0,0,.16.08,1.84,1.84,0,0,0,.74-.73,1.17,1.17,0,0,0,.26.65.12.12,0,0,0,.1,0,.75.75,0,0,0,.44-.27,3,3,0,0,0,.34.39,1.38,1.38,0,0,0,.23.26,1.38,1.38,0,0,1-.23-.26c-1.52-.26-2.46.86-3.34,2.4-1,1.69-2,3.42-3,5.1-.55.88-1.28,1.68-1.81,2.58h0a2.94,2.94,0,0,0-.88.85h0c-.26.1-.46.51-.59.87-.42.13-.75.73-1,1a4.41,4.41,0,0,1-.69.8c-.09.08-.39.26-.44.39v0C24.75,59.81,23.62,60,23.31,60.74ZM43.6,48.05A5.07,5.07,0,0,1,41.29,47h0l-.28,0a.51.51,0,0,1-.52,0,1.08,1.08,0,0,1-.75-.13,1.62,1.62,0,0,1-1.78-.57c-.14-.14-.27-.3-.41-.45.14.15.27.31.41.45a1.62,1.62,0,0,0,1.78.57,1.08,1.08,0,0,0,.75.13.51.51,0,0,0,.52,0l.28,0h0a5.07,5.07,0,0,0,2.31,1.09,9,9,0,0,1,2.52.74c.22.13.76.71,1,.7a.2.2,0,0,0,.14-.05.2.2,0,0,1-.14.05c-.28,0-.82-.57-1-.7A9,9,0,0,0,43.6,48.05ZM34,64.9v0h0v0ZM31.11,57a.73.73,0,0,1,.05.2h0A.73.73,0,0,0,31.11,57Zm.07.28v0s0,0,0,0S31.18,57.28,31.18,57.3Zm0,.23a.22.22,0,0,1,0-.08.22.22,0,0,0,0,.08Z" transform="translate(-1.75 -25.55)"/><path d="M74.48,38.77A20,20,0,0,0,74.54,43a9.74,9.74,0,0,0,.24,1.33,2.86,2.86,0,0,0,.72,2.36.25.25,0,0,0,.1.08h0a.25.25,0,0,1-.1-.08,46.69,46.69,0,0,1,1,5.07.05.05,0,0,0,0,0c.24.06.38-.22.47-.63a2.83,2.83,0,0,0,.7,1.45,2.06,2.06,0,0,0,1.49.42,10.77,10.77,0,0,0,2.36.08,40.82,40.82,0,0,1,4.69.14h0a10.35,10.35,0,0,0,.28,2,14.17,14.17,0,0,0,.06,3.57c0,.33.15.51.33.58v0c0,.14,0,.27,0,.37a4.85,4.85,0,0,0-.11.83h0a1.06,1.06,0,0,0,0,.66,5,5,0,0,0-1.19,1.94.79.79,0,0,0,.26,1c-.15.35-.28.71.11.94a10.74,10.74,0,0,0,1.15.49c.09,0,.4.15.68.27l.13.05a14.21,14.21,0,0,0-.19,1.46c0,.31-.15.65.15.82a3.5,3.5,0,0,0,.8.22,2.7,2.7,0,0,0,.8.15c.17,0,.21-.19.24-.36a8.69,8.69,0,0,0,3.46.64c.77,0,2.1.18,2.61-.58.41-.61.07-1-.51-1.37a22.84,22.84,0,0,1-3.84-2.14V64.7a2.33,2.33,0,0,0-.26-.66A2.74,2.74,0,0,1,91,63.7a.19.19,0,0,0,.09-.17A19.79,19.79,0,0,0,90.91,61h0c.06-1,.11-2,.14-2.83,0-.42.1-.84.13-1.26.11-2,1.19-6-.83-7.37a6.77,6.77,0,0,0-.2-2c-.26-1-.64-2.1-1.56-2.45,0,0,0,.07,0,.08a.32.32,0,0,1-.21,0h0a.32.32,0,0,0,.21,0s0,0,0-.08a.37.37,0,0,0,0-.17.66.66,0,0,0-.44-.3l-.63-.2a21.22,21.22,0,0,0-.57-4.61,22.69,22.69,0,0,1,.73,3.07s.06,0,.07,0a8,8,0,0,0-.87-4.45,7.65,7.65,0,0,0-.8-1.56c-.3-1-1.3-1.53-1.44-2.89s.37-2.73.09-4.13c-.23-1.22-1.22-3.09-2.63-3.16h0c-1.43-.64-2.77.3-3.36,1.73A5.16,5.16,0,0,0,78.32,30a.45.45,0,0,0,0,.11,9.29,9.29,0,0,0,0,1.67,12.13,12.13,0,0,1,0,1.9,1.86,1.86,0,0,1-.74.87c-.3.21-.6.4-.87.63h0a2,2,0,0,0-.57.25,4.38,4.38,0,0,0-1,.49,1.73,1.73,0,0,0-.48,1.33l.06-.31a2,2,0,0,1,.07-.26,2,2,0,0,0-.07.26l-.06.31v0C74.49,37.84,74.51,38.52,74.48,38.77ZM75,36.12h0Zm1.22-.46h0s0,0,0,0S76.15,35.66,76.17,35.66ZM76.94,38a.51.51,0,0,0,0,.1l.09.3-.09-.3A.51.51,0,0,1,76.94,38Zm.23.82c0,.08,0,.15,0,.23C77.2,39,77.19,38.91,77.17,38.83Zm.17,1A10.92,10.92,0,0,0,78,38.64c.06-.16.12-.32.17-.48-.05.16-.11.32-.17.48a10.92,10.92,0,0,1-.61,1.17Zm-.5-4.28a2.09,2.09,0,0,0-.6.1A2.09,2.09,0,0,1,76.84,35.53Zm1.23.45a2.83,2.83,0,0,1,.21.78,2.83,2.83,0,0,0-.21-.78h0A1.72,1.72,0,0,0,77,35.53a1.72,1.72,0,0,1,1.09.44Zm.23,1.22Zm.44,5.09a2.44,2.44,0,0,0,0,.27,2.44,2.44,0,0,1,0-.27c0-1,.54-2-.1-3a3.1,3.1,0,0,1-.55.82c-.21.2-.41.39-.6.59h0c.19-.2.39-.39.6-.59a3.1,3.1,0,0,0,.55-.82C79.28,40.26,78.77,41.24,78.74,42.29ZM80,49a4.09,4.09,0,0,1,.25-.46A4.09,4.09,0,0,0,80,49Zm3.39-.67h0ZM85,44.46h0c0-.3,0-.59.07-.88C85.05,43.87,85,44.16,85,44.46Zm-.09,0h0ZM80.44,39Zm-1,3.17,0-.36a6.84,6.84,0,0,1,.15-.94,2.83,2.83,0,0,0,.67-1.09,2.83,2.83,0,0,1-.67,1.09,6.84,6.84,0,0,0-.15.94Zm2.47-6,.24,0,.18,0a1.27,1.27,0,0,0,.78-.34,1.27,1.27,0,0,1-.78.34l-.18,0-.24,0c-.33,0-1.36.11-1.62-.24a2.47,2.47,0,0,0-.25,1.64,4.44,4.44,0,0,0,.15.52,4.44,4.44,0,0,1-.15-.52A2.47,2.47,0,0,1,80.33,36C80.59,36.33,81.62,36.24,82,36.22Zm-1.63,2.17s0,.11.05.16S80.34,38.44,80.32,38.39Zm3.23-2.53a1.93,1.93,0,0,0-.3-.27h0A1.93,1.93,0,0,1,83.55,35.86Zm-1.38,8.68h0Zm-.82,2.6Zm-2.27-2.77h0a6,6,0,0,1-.31-1.31A6,6,0,0,0,79.08,44.37Zm-.35-1.81h0Zm-1.17-1.49-.06-.26Zm.47,3,.16.06L78,44.05c0-.12,0-.24,0-.36C78,43.81,78,43.93,78,44.05Zm7.08-6.19c0,.4,0,.81,0,1.21,0-.4,0-.81,0-1.21a3.74,3.74,0,0,1-.86-1c-.14-.24-.29-.49-.45-.72.16.23.31.48.45.72A3.74,3.74,0,0,0,85.11,37.86Zm4.17,21h-.14a.18.18,0,0,0-.07-.15.18.18,0,0,1,.07.15h.14ZM85.87,46.16c-.15.11-.27.18-.38.16a.19.19,0,0,1-.1,0,18.41,18.41,0,0,0-2,2l0,0,0,0a18.41,18.41,0,0,1,2-2,.19.19,0,0,0,.1,0c.11,0,.23,0,.38-.16.36-.27.8-.44,1.14-.74a3.74,3.74,0,0,0,.42-.11,3,3,0,0,1,.52-.1,3,3,0,0,0-.52.1,3.74,3.74,0,0,1-.42.11C86.67,45.72,86.23,45.89,85.87,46.16Zm.33,7h0a.22.22,0,0,0,0,.08A.22.22,0,0,1,86.2,53.17Zm0-.31c0-1.19.14-2.36.13-3.54,0,1.18-.13,2.35-.13,3.54,0,.1,0,.2,0,.3C86.18,53.06,86.18,53,86.18,52.86ZM85,48.31l.08,0,.17,0-.17,0Zm-4.69.12a7,7,0,0,1,.66-.88A7,7,0,0,0,80.34,48.43Zm-1.48,1.82h0l.19-.21Zm-.19.21,0-.06,0,.06Zm.14-.16h0Zm-.18.2,0,0h0Zm-.27.22-.07,0,.07,0,.11-.08Zm-1-.56h0l.09.12ZM77.28,50l0,0Zm-.08-.1Zm-.08-.09.06.06ZM77,49.7v0Zm0,0h0Zm0,0ZM76.06,47a2.62,2.62,0,0,0,.33.09,10.54,10.54,0,0,0,4.53-.3,10.54,10.54,0,0,1-4.53.3A2.62,2.62,0,0,1,76.06,47ZM74.94,36.14a.1.1,0,0,0,0,0,.1.1,0,0,1,0,0Zm-.23.43a2,2,0,0,1,.15-.33A2,2,0,0,0,74.71,36.57Z" transform="translate(-1.75 -25.55)"/><path d="M49.08,41.08a2.27,2.27,0,0,0,.8,2.22,11.89,11.89,0,0,0,2.71,3.49h0c-.08.55-.12,1.24.29,1.45a.94.94,0,0,0,.22.07h0a.35.35,0,0,1,0,.14l-.09.28c-.08.25-.16.5-.25.75v0a5.17,5.17,0,0,0-.48,1.55,2.82,2.82,0,0,0,.21,1.46,3.18,3.18,0,0,0,1.31,1.31c.28.15,1.54.66,2.29,1a37.8,37.8,0,0,0,1.23,5.56c.45,1.41.66,3.13,1.21,4.46a2.14,2.14,0,0,0,.92,1.12,4.86,4.86,0,0,1-.26,1.84c-.15.43-.52,1-.39,1.48s1.07.85,1.62,1a1.72,1.72,0,0,0,1.9-.62c.48-.82,0-2.09-.2-3a.28.28,0,0,1,0-.09L62,64.34a2.54,2.54,0,0,0,0-.29,2.91,2.91,0,0,0-.27-1.19,10,10,0,0,1-.63-2.79,27.26,27.26,0,0,0-.33-3.51,17,17,0,0,0,.23-3.26c2,.38,3.91.65,5.77-.43.24,2.86-.44,5.69-.38,8.54a2.47,2.47,0,0,0,0,1.74A8.48,8.48,0,0,1,65.63,65c-.12.22-.5.62-.48.93s.27.48.56.67a7.83,7.83,0,0,1,1.37,1,3.52,3.52,0,0,0,1.17,2.26,2.39,2.39,0,0,0,2.06.53c.67-.23.69-.73.42-1.29a22.66,22.66,0,0,1-1.35-2.7,4.79,4.79,0,0,1-.11-2.21,1.76,1.76,0,0,0,.81-.26c1-.72.87-5.55,1-6.16l.24-2v0a22.65,22.65,0,0,0,.3-2.83c.2-2.07.05-3.65-1.53-5a2.1,2.1,0,0,0,.56-1.24A3.12,3.12,0,0,0,71,44.6a5.47,5.47,0,0,0-.61-1.88h0c.41-2.45.46-4.63-1.3-6.6h0a5.56,5.56,0,0,0,.24-2.07.09.09,0,0,0,0,0,8.49,8.49,0,0,0,.3-1,4.77,4.77,0,0,0,.17-.62.76.76,0,0,0,.14-.24,1.67,1.67,0,0,1,.33-.5,1.15,1.15,0,0,0,.28-.3.39.39,0,0,0,0-.48.27.27,0,0,0-.18-.1,3.08,3.08,0,0,0-1.16-4.65,3.53,3.53,0,0,0-3.24.08,2.87,2.87,0,0,0-1.18,2c-.07-.1-.14-.18-.24-.18-.32,0-.44.47-.51.68-.16.45-.4.91-.17,1.37a.81.81,0,0,0,.28.33.14.14,0,0,0,.09,0,3.82,3.82,0,0,0-.09.44,1.64,1.64,0,0,1-.14.22h0c-1.73.56-3.68.29-5.47.29a2.72,2.72,0,0,0-1.46.26h0a8.65,8.65,0,0,0-1.45,1.12,18,18,0,0,0-2.47,1.87c-1,1-1.28,1.3-.92,2l0,0,0,0a6.56,6.56,0,0,0-1.83,2.49A4.92,4.92,0,0,0,49.08,41.08Zm4-4.54v0Zm0,.51h0a1.5,1.5,0,0,0,0-.29A1.5,1.5,0,0,1,53,37.05Zm1.49,7.64.23.27a13.3,13.3,0,0,1,1.64,2.15A13.3,13.3,0,0,0,54.76,45Zm.54-5.51v.06c0,.14-.23.34-.48.53.25-.19.47-.39.48-.53Zm-.6.69.08-.07Zm-.2.14.06,0Zm-.15.11.1-.07Zm.66-1.39,0,.06,0-.06-.33-.32ZM55,39v0s0,0,0,0S55,39,55,39Zm0,.11a.06.06,0,0,1,0,0,.06.06,0,0,0,0,0v0Zm3.67,9.33a1.87,1.87,0,0,0-.39-.22l-.15-.06.15.06A1.87,1.87,0,0,1,58.72,48.46Zm.89,1.47v0Zm.1.16h-.1v0Zm1.41-2.61s0,.07,0,.11,0-.08,0-.11Zm2.17-14.57c0-.13,0-.25,0-.37,0,.12,0,.24,0,.37a9.4,9.4,0,0,0,0,1.3A9.4,9.4,0,0,1,63.29,32.91Zm1.23,3.34a.58.58,0,0,1-.48.19.23.23,0,0,1-.12-.06.23.23,0,0,0,.12.06A.58.58,0,0,0,64.52,36.25ZM67.38,35a1.62,1.62,0,0,1,0,.22h0A1.62,1.62,0,0,0,67.38,35Zm-.14,3.64,0-.23,0,.23h0v0Zm.12,1.76c0-.43,0-.86-.06-1.28C67.34,39.58,67.36,40,67.36,40.44Zm-.12-6.11a6,6,0,0,0,.65-.27,6,6,0,0,1-.65.27ZM68.93,37v0Zm0,.35c0,.07,0,.13,0,.19S69,37.41,69,37.34Zm0-.32a1.93,1.93,0,0,0,0,.24A1.93,1.93,0,0,1,68.93,37Zm-1-2.75c0-.05,0-.09.07-.15h0l0-.08h0l0,.08h0C68,34.18,67.93,34.22,67.91,34.27Zm-.21.5-.06.18Zm-.18.44h0ZM67.32,42Zm-.89-4.82a3.42,3.42,0,0,0,.67.7h0a1.36,1.36,0,0,1,.06.29,1.36,1.36,0,0,0-.06-.29h0A3.42,3.42,0,0,1,66.43,37.2Zm-.16-.43a3.26,3.26,0,0,1,0-.77A3.26,3.26,0,0,0,66.27,36.77Zm-.36-1a2.57,2.57,0,0,1-.76.24,2.57,2.57,0,0,0,.76-.24c.12-.07.26-.14.39-.23h0C66.17,35.67,66,35.74,65.91,35.81Zm3.16.41v0c0,.11,0,.22-.08.33h0c0-.11,0-.22.08-.33ZM69.74,41c0,.06,0,.13,0,.19s0-.13,0-.19-.07-.27-.1-.41C69.67,40.73,69.7,40.86,69.74,41Zm-3.56,6.44a.24.24,0,0,0,.11-.06,0,0,0,0,0,0-.05.83.83,0,0,0-.47-.61,10.08,10.08,0,0,1-1.34-.95,5.27,5.27,0,0,1,1.58-2.94c.17-.19.4-.38.6-.58a1.15,1.15,0,0,0,0,.18h0c-.43.88.36,2.3.58,3.25a1.89,1.89,0,0,0,.57,1.78v.17l-.12,0A11.51,11.51,0,0,1,66.18,47.44Zm-5.26.93c0-.23.1-.45.15-.63s0-.08,0-.12,0,.08,0,.12S61,48.14,60.92,48.37Zm-6.67.2a2.61,2.61,0,0,1-.27-.06,2.61,2.61,0,0,0,.27.06h0Zm-1.61-1.73.07.06c.42.4.83.79,1.22,1.18l.37.39h0l.1.12h0l-.1-.12h0l-.37-.39c-.39-.39-.8-.78-1.22-1.18Zm-.17-5.09a5.83,5.83,0,0,1,1.44-1.46l.19-.16a10.61,10.61,0,0,0-.35,1.48c-.09.59-.09,1.22-.2,1.82h0Q53,42.62,52.47,41.75Z" transform="translate(-1.75 -25.55)"/><path d="M4.33,45.28s0,0,0,0c.25,1.08.34,2.63.73,3.78a6.84,6.84,0,0,0-.5,1.06,5.87,5.87,0,0,0,.57,4.89c.06,2.59,1.08,5.16,1.66,7.7A8.6,8.6,0,0,0,7,66a.88.88,0,0,0,.93.72,2.43,2.43,0,0,1-.45,1.61,4.7,4.7,0,0,0-.64,1.36c-.15.61,0,.84.64,1a3.92,3.92,0,0,0,2.31-.4,2,2,0,0,0,.88-1.5,1.44,1.44,0,0,0,.49-.8,3,3,0,0,0-.64-2v0a4.54,4.54,0,0,0-.24-1.67A14,14,0,0,1,10,62a6.27,6.27,0,0,0,.05-1.94c-.11-.86-.48-1.65-.65-2.5a7.19,7.19,0,0,1,.25-3.23c1.89-.54,4.78-1.32,6.91-1A3.07,3.07,0,0,1,19,54.91,33.34,33.34,0,0,1,17.64,60c0,.06-.05.12-.07.19-.25.64-.52,1.35-.72,2l0,.08a9.85,9.85,0,0,0-.64,3.06,3.46,3.46,0,0,0-.36.93c-.13.46-.22.93-.33,1.39a2.73,2.73,0,0,0-.14.69c0,.34.32.43.64.5.67.15,1.33.13,2,.31a0,0,0,0,1,0,0,6,6,0,0,0,2.13.77c.56.09,1.78.27,2.28-.16s.12-.92-.25-1.24c-1.1-1-2.45-1.6-2.85-3.06l.14,0c.11.1.2.17.32.14a1,1,0,0,1,.21.09h0c.12,0,.31.08.42,0s.27-.11.36-.22c.54-.73.32-2.38.47-3.21A32.45,32.45,0,0,1,22.3,58h0c.09-.19.17-.37.24-.56a5.72,5.72,0,0,0,.41-1A20.88,20.88,0,0,0,24.08,52c.08-1.66-1.22-2.58-2.63-3.18a1.48,1.48,0,0,0,.32-.41,6.77,6.77,0,0,0,.1-2.66A10.55,10.55,0,0,0,21.56,43a.93.93,0,0,0-.08-.41,12.77,12.77,0,0,0-.73-4.44c-.07-.19-.19-.5-.34-.83l0,0-.09-.15-.09-.19-.08-.13c-.31-.54-.71-1-1.13-1.07-.9-.93-2.42-1.26-3.57-1.82a.08.08,0,0,1,0,0,.08.08,0,0,0,0,0,5.4,5.4,0,0,0,.31-1.07.21.21,0,0,0,.28-.09,1.63,1.63,0,0,0,.08-.58,3,3,0,0,1,.35-.95.4.4,0,0,0-.21-.57,4.56,4.56,0,0,0-.1-3.35,3.68,3.68,0,0,0-2.75-1.71,3.71,3.71,0,0,0-3,1.38c-.65.87-.49,2.25-.35,3.39-.21,0-.32.16-.37.39a1.73,1.73,0,0,0,.05.68,3.32,3.32,0,0,0,.27.93c.14.25.4.25.65.19,0,.26,0,.53-.05.79v.1c0,.05,0,.1,0,.15s0-.1,0-.15v-.1c-1.28.51-2.54,1.19-3.78,1.8a4,4,0,0,0-1.65,1.32c-1.46.51-1.39,2.67-1.39,3.93,0,.86-.3,2.42.27,3.24h0A5.51,5.51,0,0,0,4.33,45.28Zm9.43-8.94a3.8,3.8,0,0,0,.76-.67,3.8,3.8,0,0,1-.76.67c-.22.54-.8.54-1.33.34C13,36.88,13.54,36.88,13.76,36.34Zm1.39,1.29-.06.14L15,37.9a1,1,0,0,1-.36.41c-.26.13-.63-.09-.91-.28h0A2.19,2.19,0,0,1,12.9,38h0a2.19,2.19,0,0,0,.84.08h0c.28.19.65.41.91.28A1,1,0,0,0,15,37.9l.07-.13Zm-3.49.68a.57.57,0,0,1-.42,0A.57.57,0,0,0,11.66,38.31Zm.16-1.41.1,0,.16,0-.16,0Zm.91.25.19.06h0Zm2.07-2.27s0,.09,0,.14a1.37,1.37,0,0,1-.13.45,1.37,1.37,0,0,0,.13-.45C14.79,35,14.79,34.93,14.8,34.88Zm-.09,2-.09,0Zm.09,0h0Zm.49.42,0,.08c0,.05,0,.11-.08.17s.05-.12.08-.17l0-.08a.44.44,0,0,0,0-.15A.44.44,0,0,1,15.29,37.32Zm0-.25a.29.29,0,0,1,0,.09A.29.29,0,0,0,15.3,37.07Zm0,10.87-.32.13Zm-.34.14-.17.09-.2.09.2-.09ZM7,44a5.36,5.36,0,0,0-.69-.06A5.36,5.36,0,0,1,7,44a.64.64,0,0,1,.58,0A.19.19,0,0,1,7.6,44a.19.19,0,0,0-.07-.06A.64.64,0,0,0,7,44Zm.88,3.41h0a6.32,6.32,0,0,0,.1-1.57c0-.17,0-.39,0-.62,0,.23,0,.45,0,.62A6.32,6.32,0,0,1,7.83,47.39ZM10.66,33.8a2.33,2.33,0,0,0,.82,2.26,2.33,2.33,0,0,1-.82-2.26.06.06,0,0,1,0,0A.06.06,0,0,0,10.66,33.8Zm4.76.12s0,0,0,0a2,2,0,0,1-.59.81h0A2,2,0,0,0,15.4,34S15.41,33.94,15.42,33.92Zm1,13.69h0l-.11,0Zm.39-3.31a8.49,8.49,0,0,0,1.3-2.38,2.44,2.44,0,0,1,0,.27,2.37,2.37,0,0,0,.1.79c-.23.28-.11.77-.05,1.19a9.2,9.2,0,0,0,1,2.78,3.75,3.75,0,0,0-.45.74l-.17.1a3,3,0,0,1-.62.31v-.05c0-.2-.32-.23-.46-.27a3.7,3.7,0,0,0-.66-.19,6.58,6.58,0,0,0-.05-1.18A11.43,11.43,0,0,1,16.79,44.3Zm1.46-1.36h0Zm3.12-.49Zm.05,0,0,0Zm-17.2,1h0c.3.09.59.17.9.24C4.81,43.68,4.52,43.6,4.22,43.51Z" transform="translate(-1.75 -25.55)"/></svg>